<svg xmlns="http://www.w3.org/2000/svg" xmlns:xlink="http://www.w3.org/1999/xlink" width="500" zoomAndPan="magnify" viewBox="0 0 375 374.999991" height="500" preserveAspectRatio="xMidYMid meet" version="1.0"><defs><clipPath id="beb71d1ec2"><path d="M 202 214 L 211 214 L 211 223 L 202 223 Z M 202 214 " clip-rule="nonzero"/></clipPath><clipPath id="a3a8a0ed0a"><path d="M 158.523438 169.535156 L 228.210938 180.210938 L 216.402344 257.3125 L 146.714844 246.636719 Z M 158.523438 169.535156 " clip-rule="nonzero"/></clipPath><clipPath id="dfd9eae21b"><path d="M 158.523438 169.535156 L 228.210938 180.210938 L 216.402344 257.3125 L 146.714844 246.636719 Z M 158.523438 169.535156 " clip-rule="nonzero"/></clipPath><clipPath id="df33dc40bc"><path d="M 211 211 L 216 211 L 216 216 L 211 216 Z M 211 211 " clip-rule="nonzero"/></clipPath><clipPath id="275ee3e2b5"><path d="M 158.523438 169.535156 L 228.210938 180.210938 L 216.402344 257.3125 L 146.714844 246.636719 Z M 158.523438 169.535156 " clip-rule="nonzero"/></clipPath><clipPath id="0f7f447810"><path d="M 158.523438 169.535156 L 228.210938 180.210938 L 216.402344 257.3125 L 146.714844 246.636719 Z M 158.523438 169.535156 " clip-rule="nonzero"/></clipPath><clipPath id="5a8f73a39a"><path d="M 210 205 L 214 205 L 214 209 L 210 209 Z M 210 205 " clip-rule="nonzero"/></clipPath><clipPath id="08c9325c15"><path d="M 158.523438 169.535156 L 228.210938 180.210938 L 216.402344 257.3125 L 146.714844 246.636719 Z M 158.523438 169.535156 " clip-rule="nonzero"/></clipPath><clipPath id="64b2b2f9a3"><path d="M 158.523438 169.535156 L 228.210938 180.210938 L 216.402344 257.3125 L 146.714844 246.636719 Z M 158.523438 169.535156 " clip-rule="nonzero"/></clipPath><clipPath id="5349d42f88"><path d="M 180 177 L 208 177 L 208 213 L 180 213 Z M 180 177 " clip-rule="nonzero"/></clipPath><clipPath id="bd6a06313a"><path d="M 158.523438 169.535156 L 228.210938 180.210938 L 216.402344 257.3125 L 146.714844 246.636719 Z M 158.523438 169.535156 " clip-rule="nonzero"/></clipPath><clipPath id="d7570847fc"><path d="M 158.523438 169.535156 L 228.210938 180.210938 L 216.402344 257.3125 L 146.714844 246.636719 Z M 158.523438 169.535156 " clip-rule="nonzero"/></clipPath><clipPath id="dce8f99f6a"><path d="M 148 218 L 205 218 L 205 256 L 148 256 Z M 148 218 " clip-rule="nonzero"/></clipPath><clipPath id="e757c20765"><path d="M 158.523438 169.535156 L 228.210938 180.210938 L 216.402344 257.3125 L 146.714844 246.636719 Z M 158.523438 169.535156 " clip-rule="nonzero"/></clipPath><clipPath id="8ba1e6cbcd"><path d="M 158.523438 169.535156 L 228.210938 180.210938 L 216.402344 257.3125 L 146.714844 246.636719 Z M 158.523438 169.535156 " clip-rule="nonzero"/></clipPath><clipPath id="c660ee6d60"><path d="M 170 209 L 186 209 L 186 223 L 170 223 Z M 170 209 " clip-rule="nonzero"/></clipPath><clipPath id="cc078d3beb"><path d="M 158.523438 169.535156 L 228.210938 180.210938 L 216.402344 257.3125 L 146.714844 246.636719 Z M 158.523438 169.535156 " clip-rule="nonzero"/></clipPath><clipPath id="44b9c2a99f"><path d="M 158.523438 169.535156 L 228.210938 180.210938 L 216.402344 257.3125 L 146.714844 246.636719 Z M 158.523438 169.535156 " clip-rule="nonzero"/></clipPath><clipPath id="0097b23f6f"><path d="M 199 245 L 213 245 L 213 250 L 199 250 Z M 199 245 " clip-rule="nonzero"/></clipPath><clipPath id="20c7677790"><path d="M 158.523438 169.535156 L 228.210938 180.210938 L 216.402344 257.3125 L 146.714844 246.636719 Z M 158.523438 169.535156 " clip-rule="nonzero"/></clipPath><clipPath id="47c9be2bb4"><path d="M 158.523438 169.535156 L 228.210938 180.210938 L 216.402344 257.3125 L 146.714844 246.636719 Z M 158.523438 169.535156 " clip-rule="nonzero"/></clipPath><clipPath id="17b26ef99d"><path d="M 207 252 L 212 252 L 212 257 L 207 257 Z M 207 252 " clip-rule="nonzero"/></clipPath><clipPath id="01af3e7e5e"><path d="M 158.523438 169.535156 L 228.210938 180.210938 L 216.402344 257.3125 L 146.714844 246.636719 Z M 158.523438 169.535156 " clip-rule="nonzero"/></clipPath><clipPath id="0dcc63d4d3"><path d="M 158.523438 169.535156 L 228.210938 180.210938 L 216.402344 257.3125 L 146.714844 246.636719 Z M 158.523438 169.535156 " clip-rule="nonzero"/></clipPath><clipPath id="fe7ef03d31"><path d="M 214 247 L 218 247 L 218 251 L 214 251 Z M 214 247 " clip-rule="nonzero"/></clipPath><clipPath id="17121e358d"><path d="M 158.523438 169.535156 L 228.210938 180.210938 L 216.402344 257.3125 L 146.714844 246.636719 Z M 158.523438 169.535156 " clip-rule="nonzero"/></clipPath><clipPath id="feaa316836"><path d="M 158.523438 169.535156 L 228.210938 180.210938 L 216.402344 257.3125 L 146.714844 246.636719 Z M 158.523438 169.535156 " clip-rule="nonzero"/></clipPath></defs><rect x="-37.5" width="450" fill="#ffffff" y="-37.499999" height="449.999989" fill-opacity="1"/><rect x="-37.5" width="450" fill="#ffffff" y="-37.499999" height="449.999989" fill-opacity="1"/><g clip-path="url(#beb71d1ec2)"><g clip-path="url(#a3a8a0ed0a)"><g clip-path="url(#dfd9eae21b)"><path fill="#000000" d="M 202.242188 218.28125 C 201.90625 220.484375 203.417969 222.542969 205.621094 222.882812 C 207.824219 223.21875 209.882812 221.707031 210.222656 219.503906 C 210.558594 217.300781 209.046875 215.238281 206.84375 214.902344 C 204.640625 214.566406 202.582031 216.078125 202.242188 218.28125 " fill-opacity="1" fill-rule="nonzero"/></g></g></g><g clip-path="url(#df33dc40bc)"><g clip-path="url(#275ee3e2b5)"><g clip-path="url(#0f7f447810)"><path fill="#000000" d="M 213.628906 211.371094 C 212.390625 211.179688 211.226562 212.03125 211.039062 213.273438 C 210.847656 214.515625 211.699219 215.675781 212.941406 215.867188 C 214.183594 216.054688 215.34375 215.203125 215.535156 213.960938 C 215.722656 212.71875 214.871094 211.558594 213.628906 211.371094 " fill-opacity="1" fill-rule="nonzero"/></g></g></g><g clip-path="url(#5a8f73a39a)"><g clip-path="url(#08c9325c15)"><g clip-path="url(#64b2b2f9a3)"><path fill="#000000" d="M 212.0625 205.839844 C 211.308594 205.722656 210.601562 206.242188 210.484375 207 C 210.367188 207.753906 210.890625 208.460938 211.644531 208.578125 C 212.402344 208.695312 213.109375 208.171875 213.222656 207.417969 C 213.339844 206.660156 212.820312 205.953125 212.0625 205.839844 " fill-opacity="1" fill-rule="nonzero"/></g></g></g><g clip-path="url(#5349d42f88)"><g clip-path="url(#bd6a06313a)"><g clip-path="url(#d7570847fc)"><path fill="#000000" d="M 206.605469 182.910156 C 207.796875 181.230469 207.398438 178.902344 205.71875 177.707031 C 204.039062 176.515625 201.707031 176.914062 200.515625 178.59375 L 180.707031 206.539062 C 179.515625 208.222656 179.914062 210.550781 181.59375 211.742188 C 182.085938 212.089844 182.628906 212.300781 183.183594 212.386719 C 184.710938 212.839844 186.359375 211.328125 187.203125 210.136719 L 206.605469 182.910156 " fill-opacity="1" fill-rule="nonzero"/></g></g></g><g clip-path="url(#dce8f99f6a)"><g clip-path="url(#e757c20765)"><g clip-path="url(#8ba1e6cbcd)"><path fill="#000000" d="M 149.03125 231.433594 C 147.785156 239.582031 153.230469 247.210938 161.265625 248.738281 C 156.445312 244.140625 155.851562 238.953125 156.09375 235.695312 C 156.164062 234.761719 156.976562 234.0625 157.910156 234.132812 C 158.84375 234.199219 159.542969 235.015625 159.476562 235.949219 C 159.285156 238.535156 159.777344 241.695312 162.144531 244.703125 C 163.609375 246.558594 165.789062 248.359375 168.964844 249.933594 C 169.316406 250.105469 169.671875 250.277344 170.046875 250.441406 L 184.054688 252.589844 C 184.335938 252.632812 184.617188 252.628906 184.886719 252.585938 C 185.007812 252.632812 185.132812 252.671875 185.265625 252.691406 L 202.847656 255.382812 C 203.773438 255.527344 204.640625 254.890625 204.78125 253.964844 C 204.921875 253.039062 204.289062 252.175781 203.363281 252.035156 L 190.265625 250.027344 C 192.371094 248.449219 193.886719 246.074219 194.316406 243.265625 C 194.636719 241.195312 194.316406 239.171875 193.515625 237.398438 C 192.59375 240.914062 189.144531 243.234375 185.472656 242.671875 C 181.546875 242.070312 179.648438 238.933594 179.398438 234.972656 C 179.320312 233.765625 179.292969 233.550781 179.328125 232.371094 C 178.808594 226.550781 174.960938 221.480469 169.453125 219.433594 C 167.65625 218.785156 165.191406 218.425781 161.957031 218.628906 C 155.46875 219.558594 150.074219 224.621094 149.03125 231.433594 " fill-opacity="1" fill-rule="nonzero"/></g></g></g><g clip-path="url(#c660ee6d60)"><g clip-path="url(#cc078d3beb)"><g clip-path="url(#44b9c2a99f)"><path fill="#000000" d="M 183.332031 214.789062 L 177.855469 210.671875 C 175.921875 209.222656 173.179688 209.613281 171.730469 211.542969 C 170.28125 213.472656 170.667969 216.214844 172.601562 217.664062 L 178.078125 221.78125 C 180.007812 223.230469 182.75 222.84375 184.199219 220.910156 C 185.652344 218.980469 185.261719 216.238281 183.332031 214.789062 " fill-opacity="1" fill-rule="nonzero"/></g></g></g><g clip-path="url(#0097b23f6f)"><g clip-path="url(#20c7677790)"><g clip-path="url(#47c9be2bb4)"><path fill="#000000" d="M 210.730469 246.429688 L 201.9375 245.082031 C 201.015625 244.941406 200.148438 245.574219 200.007812 246.5 C 199.867188 247.425781 200.5 248.289062 201.425781 248.433594 L 210.21875 249.777344 C 211.140625 249.921875 212.007812 249.285156 212.148438 248.359375 C 212.289062 247.4375 211.65625 246.570312 210.730469 246.429688 " fill-opacity="1" fill-rule="nonzero"/></g></g></g><g clip-path="url(#17b26ef99d)"><g clip-path="url(#01af3e7e5e)"><g clip-path="url(#0dcc63d4d3)"><path fill="#000000" d="M 211.039062 254.785156 C 211.171875 253.929688 210.582031 253.125 209.726562 252.996094 C 208.867188 252.863281 208.0625 253.453125 207.933594 254.3125 C 207.800781 255.167969 208.390625 255.972656 209.25 256.101562 C 210.105469 256.234375 210.910156 255.644531 211.039062 254.785156 " fill-opacity="1" fill-rule="nonzero"/></g></g></g><g clip-path="url(#fe7ef03d31)"><g clip-path="url(#17121e358d)"><g clip-path="url(#feaa316836)"><path fill="#000000" d="M 214.566406 249.089844 C 214.433594 249.949219 215.023438 250.75 215.882812 250.882812 C 216.738281 251.011719 217.542969 250.425781 217.671875 249.566406 C 217.804688 248.707031 217.214844 247.90625 216.355469 247.773438 C 215.5 247.644531 214.695312 248.230469 214.566406 249.089844 " fill-opacity="1" fill-rule="nonzero"/></g></g></g><path fill="#000000" d="M 183.917969 206.433594 L 180.277344 202.796875 C 179.792969 203.460938 179.253906 204.09375 178.65625 204.695312 C 178.058594 205.292969 177.421875 205.832031 176.761719 206.3125 L 180.398438 209.949219 L 183.917969 206.433594 " fill-opacity="1" fill-rule="nonzero"/><path fill="#000000" d="M 184.640625 207.160156 L 181.125 210.679688 L 209.582031 239.132812 C 210.550781 240.101562 212.128906 240.101562 213.097656 239.132812 C 213.566406 238.664062 213.824219 238.039062 213.824219 237.375 C 213.824219 236.710938 213.566406 236.085938 213.097656 235.617188 L 184.640625 207.160156 " fill-opacity="1" fill-rule="nonzero"/><path fill="#000000" d="M 157.191406 203.53125 C 157.417969 203.753906 157.648438 203.964844 157.878906 204.167969 L 178.132812 183.917969 C 177.925781 183.683594 177.714844 183.453125 177.492188 183.230469 L 169.625 175.359375 C 165.445312 171.179688 160.515625 169.671875 159.070312 169.300781 L 154.914062 173.457031 C 154.960938 173.476562 155.003906 173.492188 155.050781 173.511719 C 155.320312 173.628906 155.621094 173.757812 155.949219 173.902344 C 156.28125 174.039062 156.613281 174.21875 156.976562 174.398438 C 157.15625 174.488281 157.34375 174.578125 157.53125 174.679688 C 157.714844 174.78125 157.902344 174.886719 158.09375 174.996094 C 158.285156 175.105469 158.480469 175.207031 158.671875 175.324219 C 158.863281 175.445312 159.058594 175.5625 159.253906 175.683594 C 159.648438 175.917969 160.03125 176.183594 160.417969 176.441406 C 160.808594 176.695312 161.175781 176.980469 161.550781 177.242188 C 161.914062 177.515625 162.269531 177.789062 162.613281 178.058594 C 162.949219 178.332031 163.28125 178.59375 163.582031 178.855469 C 163.882812 179.109375 164.167969 179.355469 164.425781 179.585938 C 164.6875 179.816406 164.914062 180.035156 165.121094 180.226562 C 165.324219 180.421875 165.503906 180.589844 165.648438 180.730469 C 165.933594 181.015625 166.09375 181.183594 166.09375 181.183594 C 166.09375 181.183594 165.921875 181.027344 165.613281 180.773438 C 165.457031 180.640625 165.265625 180.488281 165.046875 180.3125 C 164.824219 180.140625 164.582031 179.941406 164.300781 179.734375 C 164.027344 179.527344 163.726562 179.304688 163.402344 179.078125 C 163.085938 178.84375 162.738281 178.617188 162.382812 178.375 C 162.023438 178.136719 161.648438 177.898438 161.265625 177.660156 C 160.878906 177.429688 160.496094 177.183594 160.089844 176.964844 C 159.691406 176.746094 159.296875 176.519531 158.894531 176.320312 C 158.691406 176.21875 158.492188 176.121094 158.296875 176.019531 C 158.101562 175.921875 157.902344 175.835938 157.707031 175.746094 C 157.515625 175.65625 157.324219 175.570312 157.140625 175.484375 C 156.953125 175.402344 156.765625 175.332031 156.582031 175.257812 C 156.222656 175.117188 155.882812 174.96875 155.566406 174.867188 C 155.25 174.761719 154.960938 174.664062 154.707031 174.574219 C 154.433594 174.5 154.199219 174.433594 154.007812 174.378906 C 154.003906 174.378906 154 174.378906 153.996094 174.375 L 145.824219 182.546875 C 145.996094 182.628906 146.1875 182.71875 146.394531 182.824219 C 146.722656 183 147.085938 183.195312 147.488281 183.40625 C 147.585938 183.460938 147.6875 183.515625 147.792969 183.570312 C 147.894531 183.632812 147.996094 183.691406 148.101562 183.753906 C 148.308594 183.875 148.523438 184.003906 148.746094 184.136719 C 149.191406 184.390625 149.644531 184.6875 150.113281 184.992188 C 150.585938 185.285156 151.058594 185.621094 151.539062 185.957031 C 152.027344 186.28125 152.496094 186.644531 152.976562 186.996094 C 153.453125 187.347656 153.917969 187.722656 154.378906 188.078125 C 154.832031 188.445312 155.28125 188.804688 155.707031 189.164062 C 156.128906 189.523438 156.539062 189.867188 156.917969 190.210938 C 157.304688 190.542969 157.660156 190.867188 157.984375 191.167969 C 158.316406 191.464844 158.605469 191.75 158.871094 191.992188 C 159.128906 192.246094 159.355469 192.460938 159.539062 192.648438 C 159.90625 193.007812 160.109375 193.226562 160.109375 193.226562 C 160.109375 193.226562 159.890625 193.023438 159.5 192.683594 C 159.308594 192.515625 159.066406 192.3125 158.792969 192.078125 C 158.515625 191.851562 158.207031 191.589844 157.859375 191.3125 C 157.515625 191.035156 157.140625 190.738281 156.734375 190.429688 C 156.339844 190.113281 155.90625 189.800781 155.464844 189.46875 C 155.019531 189.140625 154.550781 188.816406 154.082031 188.476562 C 153.597656 188.15625 153.121094 187.816406 152.621094 187.5 C 152.125 187.1875 151.640625 186.859375 151.140625 186.566406 C 150.644531 186.269531 150.160156 185.972656 149.675781 185.710938 C 149.195312 185.445312 148.734375 185.183594 148.285156 184.964844 C 148.058594 184.847656 147.839844 184.738281 147.632812 184.632812 C 147.527344 184.578125 147.421875 184.527344 147.320312 184.476562 C 147.21875 184.425781 147.117188 184.382812 147.019531 184.335938 C 146.625 184.15625 146.265625 183.992188 145.945312 183.847656 C 145.617188 183.710938 145.320312 183.597656 145.082031 183.5 C 145.027344 183.480469 144.980469 183.460938 144.929688 183.441406 L 143.042969 185.324219 C 143.210938 185.398438 143.378906 185.484375 143.5625 185.570312 C 143.75 185.660156 143.9375 185.769531 144.136719 185.875 C 144.339844 185.980469 144.535156 186.105469 144.742188 186.222656 C 144.941406 186.34375 145.140625 186.476562 145.34375 186.601562 C 145.742188 186.863281 146.132812 187.132812 146.488281 187.398438 C 146.84375 187.660156 147.167969 187.917969 147.445312 188.136719 C 147.992188 188.585938 148.339844 188.902344 148.339844 188.902344 C 148.339844 188.902344 147.945312 188.644531 147.335938 188.296875 C 147.03125 188.125 146.671875 187.925781 146.28125 187.730469 C 145.890625 187.53125 145.472656 187.332031 145.050781 187.144531 C 144.835938 187.054688 144.625 186.960938 144.414062 186.875 C 144.199219 186.796875 143.996094 186.710938 143.792969 186.644531 C 143.585938 186.574219 143.394531 186.503906 143.207031 186.449219 C 143.019531 186.398438 142.839844 186.339844 142.683594 186.300781 C 142.523438 186.261719 142.378906 186.226562 142.25 186.199219 C 142.230469 186.191406 142.207031 186.1875 142.1875 186.183594 L 138.910156 189.460938 C 141.152344 190.195312 145.691406 192.027344 149.324219 195.660156 L 157.191406 203.53125 " fill-opacity="1" fill-rule="nonzero"/><path fill="#000000" d="M 177.492188 203.53125 C 182.617188 198.40625 183.046875 190.339844 178.785156 184.71875 L 158.679688 204.824219 C 161.160156 206.710938 164.171875 207.734375 167.34375 207.734375 C 171.175781 207.734375 174.78125 206.242188 177.492188 203.53125 " fill-opacity="1" fill-rule="nonzero"/><path fill="#000000" d="M 139.101562 201.921875 C 139.101562 200.191406 137.703125 198.792969 135.972656 198.792969 C 134.246094 198.792969 132.84375 200.191406 132.84375 201.921875 C 132.84375 203.648438 134.246094 205.050781 135.972656 205.050781 C 137.703125 205.050781 139.101562 203.648438 139.101562 201.921875 " fill-opacity="1" fill-rule="nonzero"/><path fill="#000000" d="M 149.058594 211.1875 C 149.058594 210.324219 148.355469 209.625 147.492188 209.625 C 146.628906 209.625 145.925781 210.324219 145.925781 211.1875 C 145.925781 212.050781 146.628906 212.75 147.492188 212.75 C 148.355469 212.75 149.058594 212.050781 149.058594 211.1875 " fill-opacity="1" fill-rule="nonzero"/><path fill="#000000" d="M 141.191406 217.183594 C 141.191406 216.054688 140.273438 215.136719 139.140625 215.136719 C 138.011719 215.136719 137.09375 216.054688 137.09375 217.183594 C 137.09375 218.316406 138.011719 219.234375 139.140625 219.234375 C 140.273438 219.234375 141.191406 218.316406 141.191406 217.183594 " fill-opacity="1" fill-rule="nonzero"/></svg>