<?xml version="1.0" encoding="utf-8"?>
<!-- Generator: Adobe Illustrator 27.4.0, SVG Export Plug-In . SVG Version: 6.00 Build 0)  -->
<svg version="1.1" id="Layer_1" xmlns="http://www.w3.org/2000/svg" xmlns:xlink="http://www.w3.org/1999/xlink" x="0px" y="0px"
	 viewBox="0 0 240 64" style="enable-background:new 0 0 240 64;" xml:space="preserve">
<style type="text/css">
	.st0{display:none;fill:#FFFFFF;}
	.st1{clip-path:url(#SVGID_00000012456240090072910400000005955979907547577995_);}
	.st2{clip-path:url(#SVGID_00000047748570413419657760000001295893097787131288_);}
	.st3{clip-path:url(#SVGID_00000175323726478916295890000013389929377975048320_);}
	.st4{clip-path:url(#SVGID_00000026135818716837189010000015191827661608211131_);}
	.st5{clip-path:url(#SVGID_00000010274663308975081980000010615726089990117045_);}
	.st6{clip-path:url(#SVGID_00000145774244918753150230000012633054100052179365_);}
	.st7{clip-path:url(#SVGID_00000050620641546365239590000009075926337468515224_);}
	.st8{clip-path:url(#SVGID_00000147204723015172468370000012653794215383883703_);}
	.st9{clip-path:url(#SVGID_00000051376316245751572980000001651617379102320037_);}
	.st10{clip-path:url(#SVGID_00000089537158045657594100000007337586175326497667_);}
	.st11{clip-path:url(#SVGID_00000183239210532218151030000017009123614630616715_);}
	.st12{clip-path:url(#SVGID_00000013151160074118401150000010600734061893581709_);}
	.st13{clip-path:url(#SVGID_00000179644987861809801030000000254062358074317986_);}
	.st14{clip-path:url(#SVGID_00000073698991445917165520000005995665950049112966_);}
	.st15{clip-path:url(#SVGID_00000025420311767255592390000003669479965907807667_);}
	.st16{clip-path:url(#SVGID_00000074443118153459132710000002437958277705842322_);}
	.st17{clip-path:url(#SVGID_00000111901900532054854990000010094289708251282876_);}
	.st18{clip-path:url(#SVGID_00000031173849821402711290000008171346397418637206_);}
	.st19{clip-path:url(#SVGID_00000147190964496515766890000004533782710053341854_);}
	.st20{clip-path:url(#SVGID_00000106869467945281201920000003812539990696072881_);}
	.st21{clip-path:url(#SVGID_00000036250741834635630550000010047476745644075427_);}
	.st22{clip-path:url(#SVGID_00000099638950023247327580000010674478141997473422_);}
	.st23{clip-path:url(#SVGID_00000042722321117710573880000006482678939102485405_);}
	.st24{clip-path:url(#SVGID_00000049922370623584560930000014230883722829223312_);}
	.st25{clip-path:url(#SVGID_00000089551839349736782510000008951833407027365793_);}
	.st26{clip-path:url(#SVGID_00000058570694659293041210000012008130637849896364_);}
	.st27{clip-path:url(#SVGID_00000145759962742794204170000005003842445989894284_);}
	.st28{fill:#231F20;}
</style>
<rect x="-181.9" y="-267.3" class="st0" width="600" height="600"/>
<rect x="-181.9" y="-267.3" class="st0" width="600" height="600"/>
<g>
	<defs>
		<rect id="SVGID_1_" x="232.5" y="35.6" width="3.1" height="3.4"/>
	</defs>
	<clipPath id="SVGID_00000022551731011549938530000015337753336239990696_">
		<use xlink:href="#SVGID_1_"  style="overflow:visible;"/>
	</clipPath>
	<g style="clip-path:url(#SVGID_00000022551731011549938530000015337753336239990696_);">
		<g>
			<defs>
				<polygon id="SVGID_00000009559654622753687540000010062183686239720066_" points="219.6,20.7 241.6,24.3 237.8,50.6 215.9,47 
									"/>
			</defs>
			<clipPath id="SVGID_00000098941487229378802700000015137706795231905426_">
				<use xlink:href="#SVGID_00000009559654622753687540000010062183686239720066_"  style="overflow:visible;"/>
			</clipPath>
			<g style="clip-path:url(#SVGID_00000098941487229378802700000015137706795231905426_);">
				<g>
					<defs>
						<polygon id="SVGID_00000111894890585269634970000017252725583893702069_" points="219.6,20.7 241.6,24.3 237.8,50.6 215.9,47 
													"/>
					</defs>
					<clipPath id="SVGID_00000052086481801023770860000005266910554277273779_">
						<use xlink:href="#SVGID_00000111894890585269634970000017252725583893702069_"  style="overflow:visible;"/>
					</clipPath>
					<g style="clip-path:url(#SVGID_00000052086481801023770860000005266910554277273779_);">
						<path d="M233.2,37.1c-0.1,0.7,0.4,1.4,1,1.5c0.7,0.1,1.3-0.4,1.4-1.1c0.1-0.7-0.4-1.4-1-1.5C233.9,35.8,233.3,36.3,233.2,37.1
							"/>
					</g>
				</g>
			</g>
		</g>
	</g>
</g>
<g>
	<defs>
		<rect id="SVGID_00000080170442922422085720000005054073726400003003_" x="235.7" y="33.9" width="2.3" height="2.5"/>
	</defs>
	<clipPath id="SVGID_00000077322736857964526000000018391549020512692896_">
		<use xlink:href="#SVGID_00000080170442922422085720000005054073726400003003_"  style="overflow:visible;"/>
	</clipPath>
	<g style="clip-path:url(#SVGID_00000077322736857964526000000018391549020512692896_);">
		<g>
			<defs>
				<polygon id="SVGID_00000177475057577376678270000018103278230845924274_" points="219.6,20.7 241.6,24.3 237.8,50.6 215.9,47 
									"/>
			</defs>
			<clipPath id="SVGID_00000047057208720381225420000017765212913255824515_">
				<use xlink:href="#SVGID_00000177475057577376678270000018103278230845924274_"  style="overflow:visible;"/>
			</clipPath>
			<g style="clip-path:url(#SVGID_00000047057208720381225420000017765212913255824515_);">
				<g>
					<defs>
						<polygon id="SVGID_00000084515062359701532750000001701032296730210231_" points="219.6,20.7 241.6,24.3 237.8,50.6 215.9,47 
													"/>
					</defs>
					<clipPath id="SVGID_00000105397059923317394820000006193501427132563890_">
						<use xlink:href="#SVGID_00000084515062359701532750000001701032296730210231_"  style="overflow:visible;"/>
					</clipPath>
					<g style="clip-path:url(#SVGID_00000105397059923317394820000006193501427132563890_);">
						<path d="M236.7,34.8c-0.4-0.1-0.7,0.2-0.8,0.6c-0.1,0.4,0.2,0.8,0.6,0.9c0.4,0.1,0.7-0.2,0.8-0.6
							C237.4,35.2,237.1,34.8,236.7,34.8"/>
					</g>
				</g>
			</g>
		</g>
	</g>
</g>
<g>
	<defs>
		<rect id="SVGID_00000098904313489825474350000011761834303838889093_" x="235.7" y="32.3" width="1.6" height="1.7"/>
	</defs>
	<clipPath id="SVGID_00000049911443543332374120000015447255551229466252_">
		<use xlink:href="#SVGID_00000098904313489825474350000011761834303838889093_"  style="overflow:visible;"/>
	</clipPath>
	<g style="clip-path:url(#SVGID_00000049911443543332374120000015447255551229466252_);">
		<g>
			<defs>
				<polygon id="SVGID_00000109724513957781158960000007300738145002620091_" points="219.6,20.7 241.6,24.3 237.8,50.6 215.9,47 
									"/>
			</defs>
			<clipPath id="SVGID_00000047779075515785025330000014921768786817001350_">
				<use xlink:href="#SVGID_00000109724513957781158960000007300738145002620091_"  style="overflow:visible;"/>
			</clipPath>
			<g style="clip-path:url(#SVGID_00000047779075515785025330000014921768786817001350_);">
				<g>
					<defs>
						<polygon id="SVGID_00000091707669619058126570000012651021844173435291_" points="219.6,20.7 241.6,24.3 237.8,50.6 215.9,47 
													"/>
					</defs>
					<clipPath id="SVGID_00000039095017075471460240000014777048398058547643_">
						<use xlink:href="#SVGID_00000091707669619058126570000012651021844173435291_"  style="overflow:visible;"/>
					</clipPath>
					<g style="clip-path:url(#SVGID_00000039095017075471460240000014777048398058547643_);">
						<path d="M236.2,32.9c-0.2,0-0.5,0.1-0.5,0.4s0.1,0.5,0.4,0.5c0.2,0,0.5-0.1,0.5-0.4C236.6,33.2,236.5,32.9,236.2,32.9"/>
					</g>
				</g>
			</g>
		</g>
	</g>
</g>
<g>
	<defs>
		<rect id="SVGID_00000058588022567513173060000001619964937577725615_" x="225.5" y="23" width="9.3" height="12.7"/>
	</defs>
	<clipPath id="SVGID_00000014620213094596647920000009023039481520341437_">
		<use xlink:href="#SVGID_00000058588022567513173060000001619964937577725615_"  style="overflow:visible;"/>
	</clipPath>
	<g style="clip-path:url(#SVGID_00000014620213094596647920000009023039481520341437_);">
		<g>
			<defs>
				<polygon id="SVGID_00000172414408002433472200000013277195147414742430_" points="219.6,20.7 241.6,24.3 237.8,50.6 215.9,47 
									"/>
			</defs>
			<clipPath id="SVGID_00000108282340563449726930000015097281604780075696_">
				<use xlink:href="#SVGID_00000172414408002433472200000013277195147414742430_"  style="overflow:visible;"/>
			</clipPath>
			<g style="clip-path:url(#SVGID_00000108282340563449726930000015097281604780075696_);">
				<g>
					<defs>
						<polygon id="SVGID_00000180336128458656630340000009070061358046992021_" points="219.6,20.7 241.6,24.3 237.8,50.6 215.9,47 
													"/>
					</defs>
					<clipPath id="SVGID_00000072263471477953142650000009290748898514012571_">
						<use xlink:href="#SVGID_00000180336128458656630340000009070061358046992021_"  style="overflow:visible;"/>
					</clipPath>
					<g style="clip-path:url(#SVGID_00000072263471477953142650000009290748898514012571_);">
						<path d="M234.5,25.2c0.4-0.6,0.2-1.4-0.3-1.8c-0.5-0.4-1.2-0.3-1.6,0.3l-6.1,9.4c-0.4,0.6-0.2,1.4,0.3,1.8
							c0.2,0.1,0.3,0.2,0.5,0.2c0.5,0.2,1-0.4,1.2-0.8L234.5,25.2"/>
					</g>
				</g>
			</g>
		</g>
	</g>
</g>
<g>
	<defs>
		<rect id="SVGID_00000144309094127943644270000001403728948648783530_" x="216.2" y="36.5" width="17.9" height="13.5"/>
	</defs>
	<clipPath id="SVGID_00000052823794339130044710000017649334375844332190_">
		<use xlink:href="#SVGID_00000144309094127943644270000001403728948648783530_"  style="overflow:visible;"/>
	</clipPath>
	<g style="clip-path:url(#SVGID_00000052823794339130044710000017649334375844332190_);">
		<g>
			<defs>
				<polygon id="SVGID_00000035532097786458404710000000935786183366354101_" points="219.6,20.7 241.6,24.3 237.8,50.6 215.9,47 
									"/>
			</defs>
			<clipPath id="SVGID_00000155836136738875144640000017058200534479909523_">
				<use xlink:href="#SVGID_00000035532097786458404710000000935786183366354101_"  style="overflow:visible;"/>
			</clipPath>
			<g style="clip-path:url(#SVGID_00000155836136738875144640000017058200534479909523_);">
				<g>
					<defs>
						<polygon id="SVGID_00000072976924858145668600000002860003191301579658_" points="219.6,20.7 241.6,24.3 237.8,50.6 215.9,47 
													"/>
					</defs>
					<clipPath id="SVGID_00000067230948540292899090000006726861878477728418_">
						<use xlink:href="#SVGID_00000072976924858145668600000002860003191301579658_"  style="overflow:visible;"/>
					</clipPath>
					<g style="clip-path:url(#SVGID_00000067230948540292899090000006726861878477728418_);">
						<path d="M216.7,41.5c-0.4,2.7,1.3,5.3,3.8,5.8c-1.5-1.5-1.7-3.3-1.6-4.4c0-0.3,0.3-0.6,0.6-0.5c0.3,0,0.5,0.3,0.5,0.6
							c-0.1,0.9,0.1,1.9,0.8,2.9c0.5,0.6,1.1,1.2,2.1,1.8c0.1,0.1,0.2,0.1,0.3,0.2l4.3,0.7c0.1,0,0.2,0,0.3,0c0,0,0.1,0,0.1,0
							l5.5,0.9c0.3,0,0.6-0.2,0.6-0.5c0-0.3-0.2-0.6-0.4-0.7l-4.1-0.7c0.7-0.5,1.1-1.3,1.3-2.3c0.1-0.7,0-1.4-0.2-2
							c-0.3,1.2-1.4,2-2.5,1.8c-1.2-0.2-1.8-1.3-1.9-2.6c0-0.4,0-0.5,0-0.9c-0.2-2-1.4-3.7-3.1-4.4c-0.6-0.2-1.3-0.3-2.3-0.3
							C218.7,37.5,217,39.2,216.7,41.5"/>
					</g>
				</g>
			</g>
		</g>
	</g>
</g>
<g>
	<defs>
		<rect id="SVGID_00000003098478256907847470000001832347586699012514_" x="223.2" y="33.9" width="4.7" height="5.1"/>
	</defs>
	<clipPath id="SVGID_00000124854000994295912280000017151166299916403106_">
		<use xlink:href="#SVGID_00000003098478256907847470000001832347586699012514_"  style="overflow:visible;"/>
	</clipPath>
	<g style="clip-path:url(#SVGID_00000124854000994295912280000017151166299916403106_);">
		<g>
			<defs>
				<polygon id="SVGID_00000031178616418030787670000007619313781963596433_" points="219.6,20.7 241.6,24.3 237.8,50.6 215.9,47 
									"/>
			</defs>
			<clipPath id="SVGID_00000148640444050409934680000013387982002341363584_">
				<use xlink:href="#SVGID_00000031178616418030787670000007619313781963596433_"  style="overflow:visible;"/>
			</clipPath>
			<g style="clip-path:url(#SVGID_00000148640444050409934680000013387982002341363584_);">
				<g>
					<defs>
						<polygon id="SVGID_00000015314162523321511840000007439160270379697550_" points="219.6,20.7 241.6,24.3 237.8,50.6 215.9,47 
													"/>
					</defs>
					<clipPath id="SVGID_00000026842200064993492760000001108369880191662498_">
						<use xlink:href="#SVGID_00000015314162523321511840000007439160270379697550_"  style="overflow:visible;"/>
					</clipPath>
					<g style="clip-path:url(#SVGID_00000026842200064993492760000001108369880191662498_);">
						<path d="M227.3,35.9l-1.7-1.4c-0.6-0.5-1.4-0.4-1.9,0.3c-0.5,0.6-0.3,1.6,0.3,2.1l1.7,1.4c0.6,0.5,1.5,0.4,1.9-0.3
							C228,37.3,227.9,36.4,227.3,35.9"/>
					</g>
				</g>
			</g>
		</g>
	</g>
</g>
<g>
	<defs>
		<rect id="SVGID_00000002373921624445472250000010928565610322349237_" x="231.8" y="45.8" width="4.7" height="2.5"/>
	</defs>
	<clipPath id="SVGID_00000128444049777044742200000006438923033986119042_">
		<use xlink:href="#SVGID_00000002373921624445472250000010928565610322349237_"  style="overflow:visible;"/>
	</clipPath>
	<g style="clip-path:url(#SVGID_00000128444049777044742200000006438923033986119042_);">
		<g>
			<defs>
				<polygon id="SVGID_00000117645232918267388070000005290380606452746150_" points="219.6,20.7 241.6,24.3 237.8,50.6 215.9,47 
									"/>
			</defs>
			<clipPath id="SVGID_00000155142062503434199570000008117233384906779270_">
				<use xlink:href="#SVGID_00000117645232918267388070000005290380606452746150_"  style="overflow:visible;"/>
			</clipPath>
			<g style="clip-path:url(#SVGID_00000155142062503434199570000008117233384906779270_);">
				<g>
					<defs>
						<polygon id="SVGID_00000088118986042143340120000009893428907667586958_" points="219.6,20.7 241.6,24.3 237.8,50.6 215.9,47 
													"/>
					</defs>
					<clipPath id="SVGID_00000021810178055110077120000006616606435952027295_">
						<use xlink:href="#SVGID_00000088118986042143340120000009893428907667586958_"  style="overflow:visible;"/>
					</clipPath>
					<g style="clip-path:url(#SVGID_00000021810178055110077120000006616606435952027295_);">
						<path d="M235.8,46.6l-2.7-0.5c-0.3,0-0.6,0.2-0.6,0.5c0,0.3,0.2,0.6,0.4,0.7l2.7,0.5c0.3,0,0.6-0.2,0.6-0.5
							C236.3,46.9,236.1,46.6,235.8,46.6"/>
					</g>
				</g>
			</g>
		</g>
	</g>
</g>
<g>
	<defs>
		<rect id="SVGID_00000054239365110666342790000013721217892472820137_" x="234.9" y="48.3" width="1.6" height="1.7"/>
	</defs>
	<clipPath id="SVGID_00000115479911398222780710000012605798944282482096_">
		<use xlink:href="#SVGID_00000054239365110666342790000013721217892472820137_"  style="overflow:visible;"/>
	</clipPath>
	<g style="clip-path:url(#SVGID_00000115479911398222780710000012605798944282482096_);">
		<g>
			<defs>
				<polygon id="SVGID_00000018197845958054153880000011840735372693676195_" points="219.6,20.7 241.6,24.3 237.8,50.6 215.9,47 
									"/>
			</defs>
			<clipPath id="SVGID_00000153674061783023875380000004553341430013978796_">
				<use xlink:href="#SVGID_00000018197845958054153880000011840735372693676195_"  style="overflow:visible;"/>
			</clipPath>
			<g style="clip-path:url(#SVGID_00000153674061783023875380000004553341430013978796_);">
				<g>
					<defs>
						<polygon id="SVGID_00000070112757157155402390000017844015574454105216_" points="219.6,20.7 241.6,24.3 237.8,50.6 215.9,47 
													"/>
					</defs>
					<clipPath id="SVGID_00000003813621906090732750000011617081537843221947_">
						<use xlink:href="#SVGID_00000070112757157155402390000017844015574454105216_"  style="overflow:visible;"/>
					</clipPath>
					<g style="clip-path:url(#SVGID_00000003813621906090732750000011617081537843221947_);">
						<path d="M235.9,49.4c0-0.3-0.1-0.6-0.4-0.6c-0.3,0-0.5,0.2-0.6,0.4c0,0.3,0.1,0.6,0.4,0.6C235.6,49.9,235.9,49.7,235.9,49.4"
							/>
					</g>
				</g>
			</g>
		</g>
	</g>
</g>
<g>
	<defs>
		<rect id="SVGID_00000003809907687332274290000013123364861445004978_" x="236.4" y="46.6" width="1.6" height="1.7"/>
	</defs>
	<clipPath id="SVGID_00000173864363181701298930000016374655856721100990_">
		<use xlink:href="#SVGID_00000003809907687332274290000013123364861445004978_"  style="overflow:visible;"/>
	</clipPath>
	<g style="clip-path:url(#SVGID_00000173864363181701298930000016374655856721100990_);">
		<g>
			<defs>
				<polygon id="SVGID_00000122701588468998322920000003115862068517618321_" points="219.6,20.7 241.6,24.3 237.8,50.6 215.9,47 
									"/>
			</defs>
			<clipPath id="SVGID_00000079461360712721609470000016010259521271733643_">
				<use xlink:href="#SVGID_00000122701588468998322920000003115862068517618321_"  style="overflow:visible;"/>
			</clipPath>
			<g style="clip-path:url(#SVGID_00000079461360712721609470000016010259521271733643_);">
				<g>
					<defs>
						<polygon id="SVGID_00000168093968761498257410000010293271547267977614_" points="219.6,20.7 241.6,24.3 237.8,50.6 215.9,47 
													"/>
					</defs>
					<clipPath id="SVGID_00000166656715584251629140000018289749505427359385_">
						<use xlink:href="#SVGID_00000168093968761498257410000010293271547267977614_"  style="overflow:visible;"/>
					</clipPath>
					<g style="clip-path:url(#SVGID_00000166656715584251629140000018289749505427359385_);">
						<path d="M237,47.5c0,0.3,0.1,0.6,0.4,0.6c0.3,0,0.5-0.2,0.6-0.4c0-0.3-0.1-0.6-0.4-0.6C237.3,47,237,47.2,237,47.5"/>
					</g>
				</g>
			</g>
		</g>
	</g>
</g>
<path d="M227.4,32l-1.2-1.3c-0.2,0.2-0.3,0.4-0.5,0.7c-0.2,0.2-0.4,0.4-0.6,0.6l1.2,1.3L227.4,32"/>
<path d="M227.7,32.3l-1.1,1.2l9.1,9.8c0.3,0.3,0.8,0.3,1.1,0c0.2-0.2,0.2-0.4,0.2-0.6c0-0.2-0.1-0.4-0.2-0.6L227.7,32.3"/>
<path d="M218.9,31c0.1,0.1,0.1,0.2,0.2,0.2l6.5-7c-0.1-0.1-0.1-0.2-0.2-0.2l-2.5-2.7c-1.3-1.4-2.9-2-3.4-2.1l-1.3,1.4c0,0,0,0,0,0
	c0.1,0,0.2,0.1,0.3,0.1c0.1,0,0.2,0.1,0.3,0.2c0.1,0,0.1,0.1,0.2,0.1c0.1,0,0.1,0.1,0.2,0.1c0.1,0,0.1,0.1,0.2,0.1
	c0.1,0,0.1,0.1,0.2,0.1c0.1,0.1,0.2,0.2,0.4,0.3c0.1,0.1,0.2,0.2,0.4,0.3c0.1,0.1,0.2,0.2,0.3,0.3c0.1,0.1,0.2,0.2,0.3,0.3
	c0.1,0.1,0.2,0.2,0.3,0.3c0.1,0.1,0.2,0.2,0.2,0.2c0.1,0.1,0.1,0.1,0.2,0.2c0.1,0.1,0.1,0.2,0.1,0.2s-0.1-0.1-0.2-0.1
	c0,0-0.1-0.1-0.2-0.2c-0.1-0.1-0.1-0.1-0.2-0.2c-0.1-0.1-0.2-0.1-0.3-0.2c-0.1-0.1-0.2-0.2-0.3-0.2c-0.1-0.1-0.2-0.2-0.4-0.2
	c-0.1-0.1-0.2-0.2-0.4-0.2c-0.1-0.1-0.3-0.2-0.4-0.2c-0.1,0-0.1-0.1-0.2-0.1c-0.1,0-0.1-0.1-0.2-0.1c-0.1,0-0.1-0.1-0.2-0.1
	c-0.1,0-0.1-0.1-0.2-0.1c-0.1,0-0.2-0.1-0.3-0.1c-0.1,0-0.2-0.1-0.3-0.1c-0.1,0-0.2,0-0.2-0.1c0,0,0,0,0,0l-2.6,2.8
	c0.1,0,0.1,0.1,0.2,0.1c0.1,0.1,0.2,0.1,0.3,0.2c0,0,0.1,0,0.1,0.1c0,0,0.1,0,0.1,0.1c0.1,0,0.1,0.1,0.2,0.1
	c0.1,0.1,0.3,0.2,0.4,0.3c0.1,0.1,0.3,0.2,0.5,0.3c0.2,0.1,0.3,0.2,0.5,0.4c0.2,0.1,0.3,0.3,0.4,0.4c0.1,0.1,0.3,0.3,0.4,0.4
	c0.1,0.1,0.3,0.2,0.4,0.4c0.1,0.1,0.2,0.2,0.3,0.3c0.1,0.1,0.2,0.2,0.3,0.3c0.1,0.1,0.2,0.2,0.2,0.2c0.1,0.1,0.2,0.2,0.2,0.2
	s-0.1-0.1-0.2-0.2c-0.1-0.1-0.1-0.1-0.2-0.2c-0.1-0.1-0.2-0.2-0.3-0.3c-0.1-0.1-0.2-0.2-0.4-0.3c-0.1-0.1-0.3-0.2-0.4-0.3
	c-0.1-0.1-0.3-0.2-0.4-0.3c-0.2-0.1-0.3-0.2-0.5-0.3c-0.2-0.1-0.3-0.2-0.5-0.3c-0.2-0.1-0.3-0.2-0.5-0.3c-0.2-0.1-0.3-0.2-0.4-0.3
	c-0.1,0-0.1-0.1-0.2-0.1c0,0-0.1,0-0.1-0.1c0,0-0.1,0-0.1,0c-0.1-0.1-0.2-0.1-0.3-0.2c-0.1,0-0.2-0.1-0.3-0.1c0,0,0,0,0,0l-0.6,0.7
	c0.1,0,0.1,0.1,0.2,0.1c0.1,0,0.1,0.1,0.2,0.1c0.1,0,0.1,0.1,0.2,0.1c0.1,0,0.1,0.1,0.2,0.1c0.1,0.1,0.2,0.2,0.4,0.3
	c0.1,0.1,0.2,0.2,0.3,0.3c0.2,0.2,0.3,0.3,0.3,0.3s-0.1-0.1-0.3-0.2c-0.1-0.1-0.2-0.1-0.3-0.2c-0.1-0.1-0.3-0.1-0.4-0.2
	c-0.1,0-0.1-0.1-0.2-0.1c-0.1,0-0.1-0.1-0.2-0.1c-0.1,0-0.1,0-0.2-0.1c-0.1,0-0.1,0-0.2-0.1c0,0-0.1,0-0.1,0c0,0,0,0,0,0l-1,1.1
	c0.7,0.3,2.2,0.9,3.3,2.1L218.9,31"/>
<path d="M225.4,31c1.6-1.8,1.8-4.6,0.4-6.5l-6.4,7c0.8,0.7,1.7,1,2.8,1C223.4,32.5,224.5,31.9,225.4,31"/>
<path d="M213.2,30.5c0-0.6-0.4-1.1-1-1.1s-1,0.5-1,1.1c0,0.6,0.4,1.1,1,1.1S213.2,31,213.2,30.5"/>
<path d="M216.3,33.7c0-0.3-0.2-0.5-0.5-0.5c-0.3,0-0.5,0.2-0.5,0.5c0,0.3,0.2,0.5,0.5,0.5C216.1,34.2,216.3,34,216.3,33.7"/>
<path d="M213.8,35.7c0-0.4-0.3-0.7-0.7-0.7c-0.4,0-0.7,0.3-0.7,0.7c0,0.4,0.3,0.7,0.7,0.7C213.5,36.4,213.8,36.1,213.8,35.7"/>
<g>
	<g transform="translate(19.362405, 193.913865)">
		<g>
			<path class="st28" d="M-19.4-171.6l3-3.3h7.9l2.6,3v5.9h-5.4v-2.9h-2.6v14.7h2.6v-3.6h5.4v6.6l-2.6,3h-7.9l-3-3.3V-171.6z
				 M-17.8-170.7v18.3l2.1,2.5h6.4l1.8-1.9v-4.1h-2.2v3.6h-5.8v-18.3h5.8v2.9h2.2v-3.5l-1.8-1.9h-6.4L-17.8-170.7z"/>
		</g>
	</g>
</g>
<g>
	<g transform="translate(38.860069, 193.913865)">
		<g>
			<path class="st28" d="M-23.7-154.2h1.5v-14.7h-1.5v-6h8.4v6h-1.5v14.7h2.4v-3.4h5.4v9.4h-14.8V-154.2z M-16.8-173.2h-5.3v2.5h1.5
				v18.3h-1.5v2.5h11.6v-5.9h-2.2v3.4h-5.7v-18.3h1.6V-173.2z"/>
		</g>
	</g>
</g>
<g>
	<g transform="translate(60.065558, 193.913865)">
		<g>
			<path class="st28" d="M-28.4-168.9v-6h15.2v9h-5.4v-3.1h-2.7v4.4h4.3v5.8h-4.3v4.5h2.7v-3.1h5.4v9.1h-15.2v-6h1.6v-14.7H-28.4z
				 M-14.8-173.2h-12v2.5h1.6v18.3h-1.6v2.5h12v-5.5H-17v3.1h-5.9v-8h4.3v-2.3h-4.3v-7.9h5.9v3h2.2V-173.2z"/>
		</g>
	</g>
</g>
<g>
	<g transform="translate(81.786957, 193.913865)">
		<g>
			<path class="st28" d="M-33.2-154.2h2.5l5.6-20.7h5.6l5.7,20.7h2.5v6h-9.7v-6h1.7l-0.5-1.7h-4.9l-0.5,1.7h1.7v6h-9.7V-154.2z
				 M-25-150v-2.5h-2.1l1.4-5.2h7.1l1.4,5.2h-2.1v2.5h6.5v-2.5H-15l-5.7-20.7h-2.9l-5.7,20.7h-2.2v2.5H-25z M-19.3-160.1h-5.8
				l2.9-10.6L-19.3-160.1z M-22.2-166.4l-1,4.5h2.1L-22.2-166.4z"/>
		</g>
	</g>
</g>
<g>
	<g transform="translate(112.172003, 193.913865)">
		<g>
			<path class="st28" d="M-39.9-154.2h1.6v-14.8h-1.6v-6h7l4.1,11.7v-5.7h-1.6v-6h8.3v6h-1.4v20.7h-5.2l-4.4-12v6.1h1.8v6h-8.5
				V-154.2z M-38.3-173.2v2.5h1.6v18.3h-1.6v2.5h5.3v-2.5h-1.5v-15l6.5,17.5h2.7v-20.7h1.4v-2.5h-5v2.5h1.4v14.9l-6.4-17.3H-38.3z"
				/>
		</g>
	</g>
</g>
<g>
	<g transform="translate(148.570026, 193.913865)">
		<g>
			<path class="st28" d="M-47.9-168.9v-6h15.2v9h-5.4v-3.1h-2.7v4.4h4.3v5.8h-4.3v4.5h1.6v6h-8.7v-6h1.6v-14.8H-47.9z M-34.3-173.2
				h-12v2.5h1.6v18.3h-1.6v2.5h5.5v-2.5h-1.6v-8h4.3v-2.3h-4.3v-7.9h5.9v3h2.2V-173.2z"/>
		</g>
	</g>
</g>
<g>
	<g transform="translate(170.291426, 193.913865)">
		<g>
			<path class="st28" d="M-52.7-174.9h12l3.2,3.5v9.3l-2.7,2.9l1.9,5h2v6h-5.1l-4.1-10.8v4.8h1.6v6h-8.7v-6h1.6v-14.7h-1.6V-174.9z
				 M-41.5-173.2h-9.6v2.4h1.6v18.3h-1.6v2.5h5.5v-2.5h-1.6v-8.2h2.6l4.1,10.7h2.5v-2.5h-1.4l-3.2-8.2h1.5l2-2.3v-7.7L-41.5-173.2z
				 M-47.3-170.7h5.9v7.9h-5.9V-170.7z M-43-168.9h-2.6v4.4h2.6V-168.9z"/>
		</g>
	</g>
</g>
<g>
	<g transform="translate(193.382637, 193.913865)">
		<g>
			<path class="st28" d="M-57.8-168.9v-6h15.2v9h-5.4v-3.1h-2.7v4.4h4.3v5.8h-4.3v4.5h2.7v-3.1h5.4v9.1h-15.2v-6h1.6v-14.7H-57.8z
				 M-44.2-173.2h-12v2.5h1.6v18.3h-1.6v2.5h12v-5.5h-2.2v3.1h-5.9v-8h4.3v-2.3h-4.3v-7.9h5.9v3h2.2V-173.2z"/>
		</g>
	</g>
</g>
<g>
	<g transform="translate(215.104037, 193.913865)">
		<g>
			<path class="st28" d="M-62.6-154.2h2.5l5.6-20.7h5.6l5.7,20.7h2.5v6h-9.7v-6h1.7l-0.5-1.7h-4.9l-0.5,1.7h1.7v6h-9.7V-154.2z
				 M-54.5-150v-2.5h-2.1l1.4-5.2h7.1l1.4,5.2h-2.1v2.5h6.5v-2.5h-2.2l-5.7-20.7h-2.9l-5.7,20.7H-61v2.5H-54.5z M-48.8-160.1h-5.8
				l2.9-10.6L-48.8-160.1z M-51.7-166.4l-1,4.5h2.1L-51.7-166.4z"/>
		</g>
	</g>
</g>
<g>
	<g transform="translate(245.489083, 193.913865)">
		<g>
			<path class="st28" d="M-69.4-174.9h8.7v6h-1.6v3.5l2.4-3.6v-5.9h7.9v6h-2.1l-3.8,5.4l3.8,9.3h2.7v6h-6l-4.1-10.2l-0.8,1.1v3h1.6
				v6h-8.7v-6h1.6v-14.7h-1.6V-174.9z M-62.3-173.2h-5.4v2.5h1.6v18.3h-1.6v2.5h5.4v-2.5h-1.6v-5.6l2.8-3.7l4.9,11.7h3.3v-2.5h-2.2
				l-4.5-11.2l4.9-7.1h1.2v-2.5h-4.7v2.5h1.3l-6.9,9.6v-9.6h1.6V-173.2z"/>
		</g>
	</g>
</g>
<g>
	<g transform="translate(270.768439, 193.913865)">
		<g>
			<path class="st28" d="M-74.8-151.7v-5.5h5.5v3h2.6v-4.4h-4.9l-3.2-3.3v-9l3.7-4h6.6l3.3,3.6v5.7h-5.5v-3.3h-2.6v4.4h5l3.1,3.4
				v9.5l-3.1,3.4h-7.3L-74.8-151.7z M-70.5-173.2l-2.8,2.9v7.8l2.1,2.1h6v7.9H-71v-3h-2.2v3l2.4,2.5h5.9l2.1-2.2v-8.3l-2.2-2.2H-71
				v-8h5.8v3.3h2.2v-3.3l-2.3-2.5H-70.5z"/>
		</g>
	</g>
</g>
</svg>
