<svg xmlns="http://www.w3.org/2000/svg" xmlns:xlink="http://www.w3.org/1999/xlink" width="1500" zoomAndPan="magnify" viewBox="0 0 375 374.999991" height="1500" preserveAspectRatio="xMidYMid meet" version="1.0"><defs><g/><clipPath id="24af237d4e"><path d="M 319 187 L 323 187 L 323 191 L 319 191 Z M 319 187 " clip-rule="nonzero"/></clipPath><clipPath id="c583e1c9b1"><path d="M 302.390625 169.296875 L 330.5625 173.613281 L 325.792969 204.75 L 297.621094 200.433594 Z M 302.390625 169.296875 " clip-rule="nonzero"/></clipPath><clipPath id="738740054f"><path d="M 302.390625 169.296875 L 330.5625 173.613281 L 325.792969 204.75 L 297.621094 200.433594 Z M 302.390625 169.296875 " clip-rule="nonzero"/></clipPath><clipPath id="2fda253960"><path d="M 323 185 L 326 185 L 326 188 L 323 188 Z M 323 185 " clip-rule="nonzero"/></clipPath><clipPath id="929d6b01a5"><path d="M 302.390625 169.296875 L 330.5625 173.613281 L 325.792969 204.75 L 297.621094 200.433594 Z M 302.390625 169.296875 " clip-rule="nonzero"/></clipPath><clipPath id="90b9688b9a"><path d="M 302.390625 169.296875 L 330.5625 173.613281 L 325.792969 204.75 L 297.621094 200.433594 Z M 302.390625 169.296875 " clip-rule="nonzero"/></clipPath><clipPath id="aeb86b345b"><path d="M 323 183 L 325 183 L 325 185 L 323 185 Z M 323 183 " clip-rule="nonzero"/></clipPath><clipPath id="ed6d44aaf6"><path d="M 302.390625 169.296875 L 330.5625 173.613281 L 325.792969 204.75 L 297.621094 200.433594 Z M 302.390625 169.296875 " clip-rule="nonzero"/></clipPath><clipPath id="a9958583ef"><path d="M 302.390625 169.296875 L 330.5625 173.613281 L 325.792969 204.75 L 297.621094 200.433594 Z M 302.390625 169.296875 " clip-rule="nonzero"/></clipPath><clipPath id="fad302bf42"><path d="M 310 172 L 322 172 L 322 187 L 310 187 Z M 310 172 " clip-rule="nonzero"/></clipPath><clipPath id="555cbca276"><path d="M 302.390625 169.296875 L 330.5625 173.613281 L 325.792969 204.75 L 297.621094 200.433594 Z M 302.390625 169.296875 " clip-rule="nonzero"/></clipPath><clipPath id="ccee8b6a83"><path d="M 302.390625 169.296875 L 330.5625 173.613281 L 325.792969 204.75 L 297.621094 200.433594 Z M 302.390625 169.296875 " clip-rule="nonzero"/></clipPath><clipPath id="43093b8e13"><path d="M 298 188 L 321 188 L 321 204 L 298 204 Z M 298 188 " clip-rule="nonzero"/></clipPath><clipPath id="4a0dcfe5ec"><path d="M 302.390625 169.296875 L 330.5625 173.613281 L 325.792969 204.75 L 297.621094 200.433594 Z M 302.390625 169.296875 " clip-rule="nonzero"/></clipPath><clipPath id="6e35d97534"><path d="M 302.390625 169.296875 L 330.5625 173.613281 L 325.792969 204.75 L 297.621094 200.433594 Z M 302.390625 169.296875 " clip-rule="nonzero"/></clipPath><clipPath id="e00b8e0be7"><path d="M 307 185 L 313 185 L 313 191 L 307 191 Z M 307 185 " clip-rule="nonzero"/></clipPath><clipPath id="7df1d12526"><path d="M 302.390625 169.296875 L 330.5625 173.613281 L 325.792969 204.75 L 297.621094 200.433594 Z M 302.390625 169.296875 " clip-rule="nonzero"/></clipPath><clipPath id="eed883c9f1"><path d="M 302.390625 169.296875 L 330.5625 173.613281 L 325.792969 204.75 L 297.621094 200.433594 Z M 302.390625 169.296875 " clip-rule="nonzero"/></clipPath><clipPath id="481c5a368f"><path d="M 318 199 L 324 199 L 324 202 L 318 202 Z M 318 199 " clip-rule="nonzero"/></clipPath><clipPath id="2a6fe5e503"><path d="M 302.390625 169.296875 L 330.5625 173.613281 L 325.792969 204.75 L 297.621094 200.433594 Z M 302.390625 169.296875 " clip-rule="nonzero"/></clipPath><clipPath id="ff2211ed4f"><path d="M 302.390625 169.296875 L 330.5625 173.613281 L 325.792969 204.75 L 297.621094 200.433594 Z M 302.390625 169.296875 " clip-rule="nonzero"/></clipPath><clipPath id="6245a446e4"><path d="M 322 202 L 324 202 L 324 204 L 322 204 Z M 322 202 " clip-rule="nonzero"/></clipPath><clipPath id="adbcc218b5"><path d="M 302.390625 169.296875 L 330.5625 173.613281 L 325.792969 204.75 L 297.621094 200.433594 Z M 302.390625 169.296875 " clip-rule="nonzero"/></clipPath><clipPath id="975c8d98ac"><path d="M 302.390625 169.296875 L 330.5625 173.613281 L 325.792969 204.75 L 297.621094 200.433594 Z M 302.390625 169.296875 " clip-rule="nonzero"/></clipPath><clipPath id="bdd07e1027"><path d="M 324 200 L 326 200 L 326 202 L 324 202 Z M 324 200 " clip-rule="nonzero"/></clipPath><clipPath id="f687246192"><path d="M 302.390625 169.296875 L 330.5625 173.613281 L 325.792969 204.75 L 297.621094 200.433594 Z M 302.390625 169.296875 " clip-rule="nonzero"/></clipPath><clipPath id="184d204abe"><path d="M 302.390625 169.296875 L 330.5625 173.613281 L 325.792969 204.75 L 297.621094 200.433594 Z M 302.390625 169.296875 " clip-rule="nonzero"/></clipPath></defs><rect x="-37.5" width="450" fill="#ffffff" y="-37.499999" height="449.999989" fill-opacity="1"/><rect x="-37.5" width="450" fill="#ffffff" y="-37.499999" height="449.999989" fill-opacity="1"/><g clip-path="url(#24af237d4e)"><g clip-path="url(#c583e1c9b1)"><g clip-path="url(#738740054f)"><path fill="#000000" d="M 319.804688 188.71875 C 319.667969 189.597656 320.269531 190.414062 321.148438 190.550781 C 322.027344 190.683594 322.847656 190.082031 322.980469 189.203125 C 323.117188 188.328125 322.511719 187.507812 321.636719 187.371094 C 320.757812 187.238281 319.9375 187.839844 319.804688 188.71875 " fill-opacity="1" fill-rule="nonzero"/></g></g></g><g clip-path="url(#2fda253960)"><g clip-path="url(#929d6b01a5)"><g clip-path="url(#90b9688b9a)"><path fill="#000000" d="M 324.339844 185.964844 C 323.84375 185.890625 323.382812 186.226562 323.304688 186.722656 C 323.230469 187.21875 323.570312 187.679688 324.066406 187.753906 C 324.558594 187.832031 325.019531 187.492188 325.097656 186.996094 C 325.171875 186.503906 324.832031 186.039062 324.339844 185.964844 " fill-opacity="1" fill-rule="nonzero"/></g></g></g><g clip-path="url(#aeb86b345b)"><g clip-path="url(#ed6d44aaf6)"><g clip-path="url(#a9958583ef)"><path fill="#000000" d="M 323.714844 183.761719 C 323.414062 183.714844 323.132812 183.921875 323.085938 184.222656 C 323.039062 184.523438 323.246094 184.804688 323.546875 184.851562 C 323.851562 184.898438 324.132812 184.691406 324.175781 184.390625 C 324.222656 184.089844 324.015625 183.808594 323.714844 183.761719 " fill-opacity="1" fill-rule="nonzero"/></g></g></g><g clip-path="url(#fad302bf42)"><g clip-path="url(#555cbca276)"><g clip-path="url(#ccee8b6a83)"><path fill="#000000" d="M 321.539062 174.628906 C 322.015625 173.957031 321.859375 173.03125 321.1875 172.554688 C 320.519531 172.082031 319.589844 172.238281 319.117188 172.910156 L 311.226562 184.039062 C 310.75 184.710938 310.90625 185.636719 311.578125 186.113281 C 311.773438 186.25 311.988281 186.335938 312.210938 186.371094 C 312.820312 186.550781 313.476562 185.949219 313.8125 185.472656 L 321.539062 174.628906 " fill-opacity="1" fill-rule="nonzero"/></g></g></g><g clip-path="url(#43093b8e13)"><g clip-path="url(#4a0dcfe5ec)"><g clip-path="url(#6e35d97534)"><path fill="#000000" d="M 298.605469 193.957031 C 298.109375 197.203125 300.277344 200.242188 303.480469 200.851562 C 301.5625 199.019531 301.324219 196.953125 301.421875 195.65625 C 301.449219 195.28125 301.773438 195.003906 302.144531 195.03125 C 302.515625 195.058594 302.792969 195.382812 302.765625 195.753906 C 302.691406 196.785156 302.886719 198.042969 303.832031 199.242188 C 304.414062 199.984375 305.28125 200.699219 306.546875 201.324219 C 306.6875 201.394531 306.828125 201.460938 306.976562 201.527344 L 312.558594 202.382812 C 312.671875 202.402344 312.78125 202.398438 312.890625 202.382812 C 312.9375 202.402344 312.988281 202.417969 313.039062 202.425781 L 320.042969 203.496094 C 320.414062 203.554688 320.757812 203.300781 320.8125 202.933594 C 320.871094 202.5625 320.617188 202.21875 320.25 202.164062 L 315.03125 201.363281 C 315.871094 200.734375 316.476562 199.789062 316.644531 198.667969 C 316.773438 197.84375 316.644531 197.039062 316.324219 196.332031 C 315.960938 197.734375 314.585938 198.65625 313.125 198.433594 C 311.558594 198.195312 310.800781 196.945312 310.703125 195.367188 C 310.671875 194.886719 310.660156 194.800781 310.675781 194.332031 C 310.46875 192.011719 308.9375 189.992188 306.742188 189.175781 C 306.027344 188.917969 305.042969 188.777344 303.753906 188.855469 C 301.171875 189.226562 299.023438 191.242188 298.605469 193.957031 " fill-opacity="1" fill-rule="nonzero"/></g></g></g><g clip-path="url(#e00b8e0be7)"><g clip-path="url(#7df1d12526)"><g clip-path="url(#eed883c9f1)"><path fill="#000000" d="M 312.269531 187.328125 L 310.085938 185.6875 C 309.320312 185.109375 308.226562 185.265625 307.648438 186.035156 C 307.070312 186.800781 307.226562 187.894531 307.996094 188.472656 L 310.175781 190.113281 C 310.945312 190.691406 312.039062 190.535156 312.617188 189.765625 C 313.195312 188.996094 313.039062 187.90625 312.269531 187.328125 " fill-opacity="1" fill-rule="nonzero"/></g></g></g><g clip-path="url(#481c5a368f)"><g clip-path="url(#2a6fe5e503)"><g clip-path="url(#ff2211ed4f)"><path fill="#000000" d="M 323.183594 199.929688 L 319.683594 199.394531 C 319.3125 199.335938 318.96875 199.589844 318.914062 199.957031 C 318.855469 200.328125 319.109375 200.671875 319.476562 200.726562 L 322.980469 201.265625 C 323.347656 201.320312 323.691406 201.066406 323.75 200.699219 C 323.804688 200.332031 323.550781 199.988281 323.183594 199.929688 " fill-opacity="1" fill-rule="nonzero"/></g></g></g><g clip-path="url(#6245a446e4)"><g clip-path="url(#adbcc218b5)"><g clip-path="url(#975c8d98ac)"><path fill="#000000" d="M 323.308594 203.257812 C 323.359375 202.917969 323.125 202.597656 322.785156 202.546875 C 322.441406 202.492188 322.121094 202.726562 322.070312 203.070312 C 322.015625 203.410156 322.25 203.730469 322.59375 203.785156 C 322.9375 203.835938 323.253906 203.601562 323.308594 203.257812 " fill-opacity="1" fill-rule="nonzero"/></g></g></g><g clip-path="url(#bdd07e1027)"><g clip-path="url(#f687246192)"><g clip-path="url(#184d204abe)"><path fill="#000000" d="M 324.710938 200.988281 C 324.660156 201.332031 324.894531 201.652344 325.234375 201.703125 C 325.578125 201.757812 325.898438 201.523438 325.949219 201.179688 C 326.003906 200.839844 325.765625 200.519531 325.425781 200.464844 C 325.082031 200.414062 324.765625 200.648438 324.710938 200.988281 " fill-opacity="1" fill-rule="nonzero"/></g></g></g><path fill="#000000" d="M 312.449219 182.714844 L 310.960938 181.226562 C 310.761719 181.496094 310.542969 181.757812 310.296875 182 C 310.054688 182.246094 309.792969 182.464844 309.523438 182.664062 L 311.011719 184.152344 L 312.449219 182.714844 " fill-opacity="1" fill-rule="nonzero"/><path fill="#000000" d="M 312.746094 183.011719 L 311.308594 184.449219 L 322.949219 196.09375 C 323.347656 196.488281 323.992188 196.488281 324.386719 196.09375 C 324.582031 195.898438 324.6875 195.644531 324.6875 195.371094 C 324.6875 195.101562 324.582031 194.84375 324.386719 194.652344 L 312.746094 183.011719 " fill-opacity="1" fill-rule="nonzero"/><path fill="#000000" d="M 301.515625 181.523438 C 301.605469 181.617188 301.703125 181.703125 301.796875 181.785156 L 310.082031 173.5 C 310 173.40625 309.914062 173.3125 309.820312 173.21875 L 306.601562 170 C 304.890625 168.289062 302.875 167.671875 302.285156 167.519531 L 300.582031 169.222656 C 300.601562 169.230469 300.621094 169.234375 300.640625 169.242188 C 300.75 169.289062 300.871094 169.34375 301.007812 169.402344 C 301.144531 169.460938 301.277344 169.53125 301.429688 169.605469 C 301.5 169.644531 301.578125 169.679688 301.652344 169.722656 C 301.730469 169.765625 301.804688 169.804688 301.882812 169.851562 C 301.960938 169.894531 302.042969 169.9375 302.121094 169.984375 C 302.199219 170.035156 302.277344 170.082031 302.359375 170.132812 C 302.519531 170.230469 302.675781 170.335938 302.835938 170.441406 C 302.996094 170.546875 303.144531 170.664062 303.296875 170.769531 C 303.449219 170.882812 303.59375 170.996094 303.734375 171.105469 C 303.871094 171.214844 304.007812 171.324219 304.128906 171.429688 C 304.253906 171.535156 304.371094 171.632812 304.476562 171.730469 C 304.582031 171.824219 304.675781 171.914062 304.761719 171.992188 C 304.84375 172.070312 304.917969 172.140625 304.972656 172.195312 C 305.09375 172.3125 305.15625 172.382812 305.15625 172.382812 C 305.15625 172.382812 305.085938 172.320312 304.960938 172.214844 C 304.898438 172.160156 304.816406 172.097656 304.730469 172.027344 C 304.636719 171.957031 304.539062 171.875 304.425781 171.789062 C 304.3125 171.707031 304.1875 171.613281 304.058594 171.523438 C 303.925781 171.425781 303.785156 171.332031 303.640625 171.234375 C 303.492188 171.136719 303.339844 171.039062 303.183594 170.941406 C 303.023438 170.847656 302.867188 170.746094 302.703125 170.65625 C 302.539062 170.566406 302.375 170.472656 302.210938 170.394531 C 302.128906 170.351562 302.046875 170.308594 301.96875 170.269531 C 301.886719 170.230469 301.804688 170.195312 301.726562 170.15625 C 301.648438 170.121094 301.570312 170.085938 301.492188 170.050781 C 301.417969 170.019531 301.339844 169.988281 301.265625 169.957031 C 301.117188 169.902344 300.980469 169.839844 300.851562 169.800781 C 300.722656 169.753906 300.601562 169.714844 300.5 169.679688 C 300.386719 169.648438 300.292969 169.621094 300.210938 169.597656 C 300.210938 169.597656 300.210938 169.597656 300.207031 169.597656 L 296.863281 172.941406 C 296.933594 172.972656 297.011719 173.011719 297.097656 173.054688 C 297.230469 173.125 297.382812 173.203125 297.546875 173.292969 C 297.585938 173.3125 297.628906 173.335938 297.667969 173.359375 C 297.710938 173.382812 297.753906 173.410156 297.796875 173.433594 C 297.878906 173.484375 297.96875 173.535156 298.058594 173.589844 C 298.242188 173.695312 298.425781 173.816406 298.621094 173.941406 C 298.8125 174.0625 299.003906 174.199219 299.203125 174.335938 C 299.402344 174.46875 299.59375 174.617188 299.792969 174.761719 C 299.988281 174.902344 300.175781 175.058594 300.363281 175.203125 C 300.550781 175.351562 300.734375 175.5 300.90625 175.648438 C 301.082031 175.796875 301.25 175.933594 301.402344 176.074219 C 301.5625 176.210938 301.707031 176.34375 301.839844 176.46875 C 301.976562 176.589844 302.09375 176.707031 302.203125 176.804688 C 302.308594 176.910156 302.402344 176.996094 302.476562 177.074219 C 302.625 177.222656 302.710938 177.308594 302.710938 177.308594 C 302.710938 177.308594 302.621094 177.226562 302.460938 177.089844 C 302.382812 177.019531 302.28125 176.9375 302.171875 176.839844 C 302.054688 176.746094 301.929688 176.640625 301.789062 176.527344 C 301.648438 176.414062 301.496094 176.292969 301.328125 176.164062 C 301.167969 176.035156 300.988281 175.90625 300.808594 175.773438 C 300.628906 175.636719 300.433594 175.503906 300.242188 175.367188 C 300.046875 175.234375 299.847656 175.097656 299.644531 174.96875 C 299.441406 174.839844 299.242188 174.703125 299.039062 174.585938 C 298.835938 174.464844 298.636719 174.34375 298.441406 174.234375 C 298.242188 174.125 298.054688 174.019531 297.871094 173.929688 C 297.777344 173.882812 297.691406 173.835938 297.605469 173.792969 C 297.5625 173.769531 297.519531 173.75 297.476562 173.730469 C 297.433594 173.710938 297.394531 173.691406 297.351562 173.671875 C 297.191406 173.597656 297.042969 173.53125 296.914062 173.472656 C 296.78125 173.417969 296.660156 173.371094 296.5625 173.332031 C 296.539062 173.320312 296.519531 173.3125 296.5 173.304688 L 295.726562 174.078125 C 295.796875 174.105469 295.863281 174.140625 295.9375 174.175781 C 296.015625 174.214844 296.09375 174.257812 296.175781 174.300781 C 296.257812 174.34375 296.335938 174.394531 296.421875 174.445312 C 296.503906 174.492188 296.585938 174.546875 296.667969 174.597656 C 296.832031 174.707031 296.988281 174.816406 297.136719 174.925781 C 297.28125 175.03125 297.414062 175.136719 297.527344 175.226562 C 297.753906 175.410156 297.894531 175.539062 297.894531 175.539062 C 297.894531 175.539062 297.734375 175.433594 297.484375 175.292969 C 297.359375 175.222656 297.210938 175.140625 297.050781 175.0625 C 296.890625 174.980469 296.722656 174.898438 296.546875 174.820312 C 296.460938 174.785156 296.375 174.746094 296.289062 174.710938 C 296.199219 174.679688 296.117188 174.644531 296.03125 174.617188 C 295.949219 174.589844 295.871094 174.558594 295.792969 174.539062 C 295.71875 174.515625 295.644531 174.492188 295.578125 174.476562 C 295.515625 174.460938 295.453125 174.445312 295.402344 174.433594 C 295.394531 174.429688 295.386719 174.429688 295.375 174.429688 L 294.035156 175.769531 C 294.953125 176.070312 296.808594 176.820312 298.296875 178.304688 L 301.515625 181.523438 " fill-opacity="1" fill-rule="nonzero"/><path fill="#000000" d="M 309.820312 181.523438 C 311.917969 179.429688 312.09375 176.128906 310.351562 173.828125 L 302.125 182.054688 C 303.140625 182.828125 304.371094 183.246094 305.667969 183.246094 C 307.238281 183.246094 308.710938 182.632812 309.820312 181.523438 " fill-opacity="1" fill-rule="nonzero"/><path fill="#000000" d="M 294.113281 180.867188 C 294.113281 180.160156 293.542969 179.585938 292.835938 179.585938 C 292.128906 179.585938 291.554688 180.160156 291.554688 180.867188 C 291.554688 181.574219 292.128906 182.148438 292.835938 182.148438 C 293.542969 182.148438 294.113281 181.574219 294.113281 180.867188 " fill-opacity="1" fill-rule="nonzero"/><path fill="#000000" d="M 298.1875 184.65625 C 298.1875 184.304688 297.898438 184.019531 297.546875 184.019531 C 297.195312 184.019531 296.90625 184.304688 296.90625 184.65625 C 296.90625 185.011719 297.195312 185.296875 297.546875 185.296875 C 297.898438 185.296875 298.1875 185.011719 298.1875 184.65625 " fill-opacity="1" fill-rule="nonzero"/><path fill="#000000" d="M 294.96875 187.113281 C 294.96875 186.648438 294.59375 186.273438 294.128906 186.273438 C 293.667969 186.273438 293.292969 186.648438 293.292969 187.113281 C 293.292969 187.574219 293.667969 187.949219 294.128906 187.949219 C 294.59375 187.949219 294.96875 187.574219 294.96875 187.113281 " fill-opacity="1" fill-rule="nonzero"/><g fill="#231f20" fill-opacity="1"><g transform="translate(19.362405, 193.913865)"><g><path d="M 1.085938 -22.699219 L 5 -26.597656 L 15.085938 -26.597656 L 18.394531 -23.09375 L 18.394531 -16.082031 L 11.402344 -16.082031 L 11.402344 -19.535156 L 8.078125 -19.535156 L 8.078125 -2.082031 L 11.402344 -2.082031 L 11.402344 -6.296875 L 18.394531 -6.296875 L 18.394531 1.496094 L 15.085938 5 L 5 5 L 1.085938 1.050781 Z M 3.148438 -21.597656 L 3.148438 0 L 5.90625 2.917969 L 14.074219 2.917969 L 16.332031 0.660156 L 16.332031 -4.234375 L 13.46875 -4.234375 L 13.46875 0 L 6.011719 0 L 6.011719 -21.597656 L 13.46875 -21.597656 L 13.46875 -18.144531 L 16.332031 -18.144531 L 16.332031 -22.257812 L 14.074219 -24.515625 L 5.90625 -24.515625 Z M 3.148438 -21.597656 "/></g></g></g><g fill="#231f20" fill-opacity="1"><g transform="translate(38.860069, 193.913865)"><g><path d="M 1.085938 -2.082031 L 2.988281 -2.082031 L 2.988281 -19.515625 L 1.085938 -19.515625 L 1.085938 -26.597656 L 11.917969 -26.597656 L 11.917969 -19.515625 L 9.980469 -19.515625 L 9.980469 -2.082031 L 13.113281 -2.082031 L 13.113281 -6.136719 L 20.101562 -6.136719 L 20.101562 5 L 1.085938 5 Z M 9.910156 -24.515625 L 3.167969 -24.515625 L 3.167969 -21.597656 L 5.070312 -21.597656 L 5.070312 0 L 3.167969 0 L 3.167969 2.917969 L 18.039062 2.917969 L 18.039062 -4.054688 L 15.191406 -4.054688 L 15.191406 0 L 7.898438 0 L 7.898438 -21.597656 L 9.910156 -21.597656 Z M 9.910156 -24.515625 "/></g></g></g><g fill="#231f20" fill-opacity="1"><g transform="translate(60.065558, 193.913865)"><g><path d="M 1.085938 -19.535156 L 1.085938 -26.597656 L 20.621094 -26.597656 L 20.621094 -15.921875 L 13.628906 -15.921875 L 13.628906 -19.535156 L 10.160156 -19.535156 L 10.160156 -14.285156 L 15.710938 -14.285156 L 15.710938 -7.367188 L 10.160156 -7.367188 L 10.160156 -2.082031 L 13.628906 -2.082031 L 13.628906 -5.730469 L 20.621094 -5.730469 L 20.621094 5 L 1.085938 5 L 1.085938 -2.082031 L 3.167969 -2.082031 L 3.167969 -19.535156 Z M 18.539062 -24.515625 L 3.167969 -24.515625 L 3.167969 -21.597656 L 5.25 -21.597656 L 5.25 0 L 3.167969 0 L 3.167969 2.917969 L 18.539062 2.917969 L 18.539062 -3.648438 L 15.710938 -3.648438 L 15.710938 0 L 8.078125 0 L 8.078125 -9.429688 L 13.628906 -9.429688 L 13.628906 -12.203125 L 8.078125 -12.203125 L 8.078125 -21.597656 L 15.710938 -21.597656 L 15.710938 -18.003906 L 18.539062 -18.003906 Z M 18.539062 -24.515625 "/></g></g></g><g fill="#231f20" fill-opacity="1"><g transform="translate(81.786957, 193.913865)"><g><path d="M 1.085938 -2.082031 L 4.339844 -2.082031 L 11.582031 -26.597656 L 18.769531 -26.597656 L 26.082031 -2.082031 L 29.300781 -2.082031 L 29.300781 5 L 16.792969 5 L 16.792969 -2.082031 L 18.945312 -2.082031 L 18.359375 -4.039062 L 12.0625 -4.039062 L 11.4375 -2.082031 L 13.59375 -2.082031 L 13.59375 5 L 1.085938 5 Z M 11.511719 2.917969 L 11.511719 0 L 8.789062 0 L 10.640625 -6.191406 L 19.746094 -6.191406 L 21.597656 0 L 18.875 0 L 18.875 2.917969 L 27.21875 2.917969 L 27.21875 0 L 24.410156 0 L 17.042969 -24.515625 L 13.34375 -24.515625 L 5.976562 0 L 3.167969 0 L 3.167969 2.917969 Z M 18.875 -9.074219 L 11.476562 -9.074219 L 15.191406 -21.597656 Z M 15.191406 -16.507812 L 13.875 -11.15625 L 16.507812 -11.15625 Z M 15.191406 -16.507812 "/></g></g></g><g fill="#231f20" fill-opacity="1"><g transform="translate(112.172003, 193.913865)"><g><path d="M 1.085938 -2.0625 L 3.167969 -2.0625 L 3.167969 -19.535156 L 1.085938 -19.535156 L 1.085938 -26.597656 L 10.015625 -26.597656 L 15.335938 -12.792969 L 15.335938 -19.535156 L 13.21875 -19.535156 L 13.21875 -26.597656 L 23.820312 -26.597656 L 23.820312 -19.535156 L 22.007812 -19.535156 L 22.007812 5 L 15.335938 5 L 9.730469 -9.25 L 9.730469 -2.0625 L 12.027344 -2.0625 L 12.027344 5 L 1.085938 5 Z M 3.148438 -24.53125 L 3.148438 -21.597656 L 5.230469 -21.597656 L 5.230469 0 L 3.148438 0 L 3.148438 2.933594 L 9.960938 2.933594 L 9.960938 0 L 8.09375 0 L 8.09375 -17.738281 L 16.4375 2.933594 L 19.941406 2.933594 L 19.941406 -21.597656 L 21.757812 -21.597656 L 21.757812 -24.515625 L 15.28125 -24.515625 L 15.28125 -21.597656 L 17.097656 -21.597656 L 17.097656 -4.003906 L 8.824219 -24.53125 Z M 3.148438 -24.53125 "/></g></g></g><g fill="#231f20" fill-opacity="1"><g transform="translate(137.095574, 193.913865)"><g/></g></g><g fill="#231f20" fill-opacity="1"><g transform="translate(148.570026, 193.913865)"><g><path d="M 1.085938 -19.535156 L 1.085938 -26.597656 L 20.621094 -26.597656 L 20.621094 -15.921875 L 13.628906 -15.921875 L 13.628906 -19.535156 L 10.160156 -19.535156 L 10.160156 -14.269531 L 15.710938 -14.269531 L 15.710938 -7.367188 L 10.160156 -7.367188 L 10.160156 -2.0625 L 12.238281 -2.0625 L 12.238281 5 L 1.085938 5 L 1.085938 -2.0625 L 3.167969 -2.0625 L 3.167969 -19.535156 Z M 18.554688 -24.53125 L 3.148438 -24.53125 L 3.148438 -21.597656 L 5.230469 -21.597656 L 5.230469 0 L 3.148438 0 L 3.148438 2.933594 L 10.160156 2.933594 L 10.160156 0 L 8.09375 0 L 8.09375 -9.429688 L 13.644531 -9.429688 L 13.644531 -12.203125 L 8.09375 -12.203125 L 8.09375 -21.597656 L 15.691406 -21.597656 L 15.691406 -18.003906 L 18.554688 -18.003906 Z M 18.554688 -24.53125 "/></g></g></g><g fill="#231f20" fill-opacity="1"><g transform="translate(170.291426, 193.913865)"><g><path d="M 1.085938 -26.597656 L 16.472656 -26.597656 L 20.546875 -22.417969 L 20.546875 -11.402344 L 17.097656 -7.988281 L 19.5 -2.082031 L 22.007812 -2.082031 L 22.007812 5 L 15.40625 5 L 10.160156 -7.757812 L 10.160156 -2.082031 L 12.238281 -2.082031 L 12.238281 5 L 1.085938 5 L 1.085938 -2.082031 L 3.167969 -2.082031 L 3.167969 -19.535156 L 1.085938 -19.535156 Z M 15.476562 -24.515625 L 3.167969 -24.515625 L 3.167969 -21.617188 L 5.25 -21.617188 L 5.25 0 L 3.167969 0 L 3.167969 2.917969 L 10.195312 2.917969 L 10.195312 0 L 8.078125 0 L 8.078125 -9.695312 L 11.402344 -9.695312 L 16.652344 2.917969 L 19.925781 2.917969 L 19.925781 0 L 18.074219 0 L 13.949219 -9.695312 L 15.921875 -9.695312 L 18.464844 -12.382812 L 18.464844 -21.527344 Z M 8.078125 -21.617188 L 15.636719 -21.617188 L 15.636719 -12.277344 L 8.078125 -12.277344 Z M 13.554688 -19.535156 L 10.160156 -19.535156 L 10.160156 -14.355469 L 13.554688 -14.355469 Z M 13.554688 -19.535156 "/></g></g></g><g fill="#231f20" fill-opacity="1"><g transform="translate(193.382637, 193.913865)"><g><path d="M 1.085938 -19.535156 L 1.085938 -26.597656 L 20.621094 -26.597656 L 20.621094 -15.921875 L 13.628906 -15.921875 L 13.628906 -19.535156 L 10.160156 -19.535156 L 10.160156 -14.285156 L 15.710938 -14.285156 L 15.710938 -7.367188 L 10.160156 -7.367188 L 10.160156 -2.082031 L 13.628906 -2.082031 L 13.628906 -5.730469 L 20.621094 -5.730469 L 20.621094 5 L 1.085938 5 L 1.085938 -2.082031 L 3.167969 -2.082031 L 3.167969 -19.535156 Z M 18.539062 -24.515625 L 3.167969 -24.515625 L 3.167969 -21.597656 L 5.25 -21.597656 L 5.25 0 L 3.167969 0 L 3.167969 2.917969 L 18.539062 2.917969 L 18.539062 -3.648438 L 15.710938 -3.648438 L 15.710938 0 L 8.078125 0 L 8.078125 -9.429688 L 13.628906 -9.429688 L 13.628906 -12.203125 L 8.078125 -12.203125 L 8.078125 -21.597656 L 15.710938 -21.597656 L 15.710938 -18.003906 L 18.539062 -18.003906 Z M 18.539062 -24.515625 "/></g></g></g><g fill="#231f20" fill-opacity="1"><g transform="translate(215.104037, 193.913865)"><g><path d="M 1.085938 -2.082031 L 4.339844 -2.082031 L 11.582031 -26.597656 L 18.769531 -26.597656 L 26.082031 -2.082031 L 29.300781 -2.082031 L 29.300781 5 L 16.792969 5 L 16.792969 -2.082031 L 18.945312 -2.082031 L 18.359375 -4.039062 L 12.0625 -4.039062 L 11.4375 -2.082031 L 13.59375 -2.082031 L 13.59375 5 L 1.085938 5 Z M 11.511719 2.917969 L 11.511719 0 L 8.789062 0 L 10.640625 -6.191406 L 19.746094 -6.191406 L 21.597656 0 L 18.875 0 L 18.875 2.917969 L 27.21875 2.917969 L 27.21875 0 L 24.410156 0 L 17.042969 -24.515625 L 13.34375 -24.515625 L 5.976562 0 L 3.167969 0 L 3.167969 2.917969 Z M 18.875 -9.074219 L 11.476562 -9.074219 L 15.191406 -21.597656 Z M 15.191406 -16.507812 L 13.875 -11.15625 L 16.507812 -11.15625 Z M 15.191406 -16.507812 "/></g></g></g><g fill="#231f20" fill-opacity="1"><g transform="translate(245.489083, 193.913865)"><g><path d="M 1.085938 -26.597656 L 12.238281 -26.597656 L 12.238281 -19.515625 L 10.160156 -19.515625 L 10.160156 -15.335938 L 13.253906 -19.570312 L 13.253906 -26.597656 L 23.429688 -26.597656 L 23.429688 -19.515625 L 20.726562 -19.515625 L 15.851562 -13.074219 L 20.761719 -2.082031 L 24.195312 -2.082031 L 24.195312 5 L 16.546875 5 L 11.226562 -7.027344 L 10.160156 -5.675781 L 10.160156 -2.082031 L 12.238281 -2.082031 L 12.238281 5 L 1.085938 5 L 1.085938 -2.082031 L 3.167969 -2.082031 L 3.167969 -19.515625 L 1.085938 -19.515625 Z M 10.160156 -24.515625 L 3.167969 -24.515625 L 3.167969 -21.597656 L 5.25 -21.597656 L 5.25 0 L 3.167969 0 L 3.167969 2.917969 L 10.160156 2.917969 L 10.160156 0 L 8.09375 0 L 8.09375 -6.636719 L 11.652344 -10.957031 L 17.898438 2.917969 L 22.113281 2.917969 L 22.113281 0 L 19.265625 0 L 13.484375 -13.21875 L 19.78125 -21.597656 L 21.347656 -21.597656 L 21.347656 -24.515625 L 15.335938 -24.515625 L 15.335938 -21.597656 L 16.972656 -21.597656 L 8.09375 -10.195312 L 8.09375 -21.597656 L 10.160156 -21.597656 Z M 10.160156 -24.515625 "/></g></g></g><g fill="#231f20" fill-opacity="1"><g transform="translate(270.768439, 193.913865)"><g><path d="M 1.226562 0.871094 L 1.226562 -5.640625 L 8.238281 -5.640625 L 8.238281 -2.082031 L 11.582031 -2.082031 L 11.582031 -7.328125 L 5.320312 -7.328125 L 1.226562 -11.261719 L 1.226562 -21.863281 L 5.976562 -26.597656 L 14.390625 -26.597656 L 18.589844 -22.328125 L 18.589844 -15.636719 L 11.582031 -15.636719 L 11.582031 -19.515625 L 8.238281 -19.515625 L 8.238281 -14.355469 L 14.605469 -14.355469 L 18.589844 -10.320312 L 18.589844 0.941406 L 14.640625 5 L 5.285156 5 Z M 6.847656 -24.515625 L 3.308594 -21.136719 L 3.308594 -11.882812 L 5.976562 -9.394531 L 13.664062 -9.394531 L 13.664062 0 L 6.15625 0 L 6.15625 -3.558594 L 3.308594 -3.558594 L 3.308594 -0.0351562 L 6.332031 2.917969 L 13.875 2.917969 L 16.507812 0.320312 L 16.507812 -9.519531 L 13.699219 -12.132812 L 6.15625 -12.132812 L 6.15625 -21.597656 L 13.664062 -21.597656 L 13.664062 -17.71875 L 16.507812 -17.71875 L 16.507812 -21.597656 L 13.554688 -24.515625 Z M 6.847656 -24.515625 "/></g></g></g></svg>