<?xml version="1.0" encoding="UTF-8"?>
<svg id="Layer_1" data-name="Layer 1" xmlns="http://www.w3.org/2000/svg" xmlns:xlink="http://www.w3.org/1999/xlink" viewBox="0 0 40 40">
  <defs>
    <clipPath id="clippath">
      <rect x="28.542" y="20.288" width="3.457" height="3.802" style="fill: none;"/>
    </clipPath>
    <clipPath id="clippath-1">
      <polygon points="11.843 1.503 38.61 6.014 34.074 38.586 7.307 34.076 11.843 1.503" style="fill: none;"/>
    </clipPath>
    <clipPath id="clippath-2">
      <polygon points="11.843 1.503 38.61 6.014 34.074 38.586 7.307 34.076 11.843 1.503" style="fill: none;"/>
    </clipPath>
    <clipPath id="clippath-3">
      <rect x="31.999" y="19.021" width="1.921" height="2.112" style="fill: none;"/>
    </clipPath>
    <clipPath id="clippath-4">
      <polygon points="11.843 1.503 38.61 6.014 34.074 38.586 7.307 34.076 11.843 1.503" style="fill: none;"/>
    </clipPath>
    <clipPath id="clippath-5">
      <polygon points="11.843 1.503 38.61 6.014 34.074 38.586 7.307 34.076 11.843 1.503" style="fill: none;"/>
    </clipPath>
    <clipPath id="clippath-6">
      <rect x="31.615" y="16.486" width="1.536" height="1.69" style="fill: none;"/>
    </clipPath>
    <clipPath id="clippath-7">
      <polygon points="11.843 1.503 38.61 6.014 34.074 38.586 7.307 34.076 11.843 1.503" style="fill: none;"/>
    </clipPath>
    <clipPath id="clippath-8">
      <polygon points="11.843 1.503 38.61 6.014 34.074 38.586 7.307 34.076 11.843 1.503" style="fill: none;"/>
    </clipPath>
    <clipPath id="clippath-9">
      <rect x="20.092" y="4.657" width="10.755" height="15.209" style="fill: none;"/>
    </clipPath>
    <clipPath id="clippath-10">
      <polygon points="11.843 1.503 38.61 6.014 34.074 38.586 7.307 34.076 11.843 1.503" style="fill: none;"/>
    </clipPath>
    <clipPath id="clippath-11">
      <polygon points="11.843 1.503 38.61 6.014 34.074 38.586 7.307 34.076 11.843 1.503" style="fill: none;"/>
    </clipPath>
    <clipPath id="clippath-12">
      <rect x="7.801" y="21.978" width="21.894" height="16.054" style="fill: none;"/>
    </clipPath>
    <clipPath id="clippath-13">
      <polygon points="11.843 1.503 38.61 6.014 34.074 38.586 7.307 34.076 11.843 1.503" style="fill: none;"/>
    </clipPath>
    <clipPath id="clippath-14">
      <polygon points="11.843 1.503 38.61 6.014 34.074 38.586 7.307 34.076 11.843 1.503" style="fill: none;"/>
    </clipPath>
    <clipPath id="clippath-15">
      <rect x="16.251" y="18.176" width="6.146" height="5.915" style="fill: none;"/>
    </clipPath>
    <clipPath id="clippath-16">
      <polygon points="11.843 1.503 38.61 6.014 34.074 38.586 7.307 34.076 11.843 1.503" style="fill: none;"/>
    </clipPath>
    <clipPath id="clippath-17">
      <polygon points="11.843 1.503 38.61 6.014 34.074 38.586 7.307 34.076 11.843 1.503" style="fill: none;"/>
    </clipPath>
    <clipPath id="clippath-18">
      <rect x="27.39" y="33.385" width="5.377" height="2.112" style="fill: none;"/>
    </clipPath>
    <clipPath id="clippath-19">
      <polygon points="11.843 1.503 38.61 6.014 34.074 38.586 7.307 34.076 11.843 1.503" style="fill: none;"/>
    </clipPath>
    <clipPath id="clippath-20">
      <polygon points="11.843 1.503 38.61 6.014 34.074 38.586 7.307 34.076 11.843 1.503" style="fill: none;"/>
    </clipPath>
    <clipPath id="clippath-21">
      <rect x="30.463" y="36.342" width="1.921" height="2.112" style="fill: none;"/>
    </clipPath>
    <clipPath id="clippath-22">
      <polygon points="11.843 1.503 38.61 6.014 34.074 38.586 7.307 34.076 11.843 1.503" style="fill: none;"/>
    </clipPath>
    <clipPath id="clippath-23">
      <polygon points="11.843 1.503 38.61 6.014 34.074 38.586 7.307 34.076 11.843 1.503" style="fill: none;"/>
    </clipPath>
    <clipPath id="clippath-24">
      <rect x="33.152" y="34.23" width="1.536" height="1.69" style="fill: none;"/>
    </clipPath>
    <clipPath id="clippath-25">
      <polygon points="11.843 1.503 38.61 6.014 34.074 38.586 7.307 34.076 11.843 1.503" style="fill: none;"/>
    </clipPath>
    <clipPath id="clippath-26">
      <polygon points="11.843 1.503 38.61 6.014 34.074 38.586 7.307 34.076 11.843 1.503" style="fill: none;"/>
    </clipPath>
  </defs>
  <g style="clip-path: url(#clippath);">
    <g style="clip-path: url(#clippath-1);">
      <g style="clip-path: url(#clippath-2);">
        <path d="m28.635,22.097c-.129.931.452,1.8,1.298,1.944.846.142,1.637-.497,1.767-1.427.129-.931-.452-1.802-1.298-1.944s-1.637.497-1.767,1.427"/>
      </g>
    </g>
  </g>
  <g style="clip-path: url(#clippath-3);">
    <g style="clip-path: url(#clippath-4);">
      <g style="clip-path: url(#clippath-5);">
        <path d="m33.009,19.178c-.476-.081-.923.279-.995.804-.074.525.254,1.015.731,1.096.477.079.923-.281.996-.805.072-.525-.255-1.015-.732-1.094"/>
      </g>
    </g>
  </g>
  <g style="clip-path: url(#clippath-6);">
    <g style="clip-path: url(#clippath-7);">
      <g style="clip-path: url(#clippath-8);">
        <path d="m32.407,16.841c-.29-.05-.561.17-.606.49-.045.319.156.617.446.667.291.05.563-.172.606-.49.045-.32-.155-.619-.446-.667"/>
      </g>
    </g>
  </g>
  <g style="clip-path: url(#clippath-9);">
    <g style="clip-path: url(#clippath-10);">
      <g style="clip-path: url(#clippath-11);">
        <path d="m30.311,7.154c.458-.71.305-1.693-.341-2.198-.645-.503-1.541-.335-1.999.375l-7.609,11.806c-.458.711-.305,1.695.341,2.198.189.147.398.236.611.272.587.191,1.22-.447,1.544-.951l7.453-11.502"/>
      </g>
    </g>
  </g>
  <g style="clip-path: url(#clippath-12);">
    <g style="clip-path: url(#clippath-13);">
      <g style="clip-path: url(#clippath-14);">
        <path d="m8.197,27.653c-.479,3.442,1.613,6.665,4.699,7.311-1.852-1.942-2.08-4.134-1.987-5.51.027-.394.339-.69.698-.66.359.028.627.373.602.767-.074,1.092.116,2.428,1.025,3.698.563.784,1.4,1.545,2.62,2.21.135.073.272.145.416.215l5.38.908c.108.018.216.017.32-.002.047.02.095.036.146.045l6.753,1.137c.356.061.689-.208.743-.599s-.189-.756-.545-.815l-5.031-.848c.809-.667,1.391-1.67,1.556-2.857.123-.875,0-1.729-.308-2.479-.354,1.485-1.679,2.465-3.089,2.228-1.508-.254-2.237-1.579-2.333-3.253-.03-.51-.041-.601-.027-1.099-.2-2.459-1.677-4.601-3.793-5.466-.69-.274-1.637-.426-2.879-.34-2.492.393-4.564,2.532-4.965,5.41"/>
      </g>
    </g>
  </g>
  <g style="clip-path: url(#clippath-15);">
    <g style="clip-path: url(#clippath-16);">
      <g style="clip-path: url(#clippath-17);">
        <path d="m21.372,20.622l-2.104-1.739c-.743-.612-1.796-.447-2.353.368s-.408,1.974.335,2.586l2.104,1.739c.741.612,1.794.449,2.351-.368.558-.815.408-1.974-.333-2.586"/>
      </g>
    </g>
  </g>
  <g style="clip-path: url(#clippath-18);">
    <g style="clip-path: url(#clippath-19);">
      <g style="clip-path: url(#clippath-20);">
        <path d="m31.896,33.989l-3.377-.569c-.354-.059-.687.208-.741.599s.189.756.545.817l3.377.568c.354.061.687-.208.741-.599.054-.389-.189-.756-.545-.815"/>
      </g>
    </g>
  </g>
  <g style="clip-path: url(#clippath-21);">
    <g style="clip-path: url(#clippath-22);">
      <g style="clip-path: url(#clippath-23);">
        <path d="m32.014,37.519c.051-.361-.176-.701-.504-.756-.33-.056-.639.193-.689.556-.051.361.176.701.506.756.329.056.638-.193.687-.556"/>
      </g>
    </g>
  </g>
  <g style="clip-path: url(#clippath-24);">
    <g style="clip-path: url(#clippath-25);">
      <g style="clip-path: url(#clippath-26);">
        <path d="m33.369,35.113c-.051.363.176.701.506.757.329.054.638-.193.687-.556.051-.363-.176-.701-.506-.757-.329-.054-.638.193-.687.556"/>
      </g>
    </g>
  </g>
  <path d="m21.597,17.092l-1.398-1.536c-.186.281-.393.548-.623.802-.23.252-.474.48-.728.683l1.397,1.536,1.352-1.485"/>
  <path d="m21.874,17.399l-1.35,1.487,10.9,11.988c.33.362.856.452,1.24.161.356-.269.505-.745.371-1.213-.046-.159-.137-.298-.244-.415l-10.917-12.007"/>
  <path d="m11.331,15.866c.087.094.176.183.264.269l7.78-8.555c-.08-.099-.161-.196-.246-.29l-3.022-3.325c-1.605-1.766-3.499-2.403-4.054-2.56l-1.596,1.756c.018.008.035.015.053.023.104.05.219.104.345.165.128.058.255.134.395.21.069.038.141.076.213.119.071.043.143.087.216.134s.149.089.222.139c.074.051.149.101.224.152.152.099.299.211.447.32.15.107.291.228.435.338.14.116.276.231.408.345.129.116.257.226.372.337.116.107.225.211.324.309.101.097.188.19.267.271.078.083.147.153.203.213.11.12.171.191.171.191,0,0-.066-.066-.185-.173-.06-.056-.134-.12-.218-.195-.086-.073-.179-.157-.287-.244-.105-.087-.221-.182-.345-.277-.122-.099-.255-.195-.392-.297-.138-.101-.282-.201-.429-.302-.149-.097-.296-.201-.452-.294-.153-.092-.305-.188-.459-.272-.078-.043-.155-.084-.23-.127-.075-.041-.152-.078-.227-.116-.074-.038-.147-.074-.218-.111-.072-.035-.144-.064-.215-.096-.138-.059-.269-.122-.39-.165-.122-.045-.233-.086-.33-.124-.105-.031-.195-.059-.269-.083-.002,0-.003,0-.005-.002l-3.139,3.452c.066.035.14.073.219.117.126.074.266.157.42.246.038.023.077.046.117.069.039.026.078.051.119.078.08.051.162.106.248.162.171.107.345.233.525.361.182.124.363.266.548.408.188.137.368.29.552.439.183.149.362.307.539.457.174.155.347.307.51.459.162.152.32.297.465.442.149.14.285.277.41.404.128.125.239.246.341.348.099.107.186.198.257.277.141.152.219.244.219.244,0,0-.084-.086-.234-.229-.074-.071-.167-.157-.272-.256-.107-.096-.225-.206-.359-.323-.132-.117-.276-.243-.432-.373-.152-.134-.318-.266-.488-.406-.171-.139-.351-.276-.531-.419-.186-.135-.369-.279-.561-.413-.191-.132-.377-.271-.569-.394-.191-.125-.377-.251-.563-.361-.185-.112-.362-.223-.534-.315-.087-.05-.171-.096-.251-.14-.041-.023-.081-.045-.12-.066s-.078-.04-.116-.059c-.152-.076-.29-.145-.413-.206-.153-.07-.288-.126-.387-.172h-.003s-.725.796-.725.796c.065.031.129.068.2.104.072.038.144.084.221.129.078.045.153.097.233.147.077.051.153.107.231.16.153.111.303.224.44.337.137.111.261.219.368.312.21.19.344.323.344.323,0,0-.152-.109-.386-.256-.117-.073-.255-.157-.405-.239-.15-.084-.311-.168-.473-.248-.083-.038-.164-.078-.245-.114-.083-.033-.161-.069-.239-.097-.08-.03-.153-.059-.225-.083-.072-.021-.141-.046-.201-.063-.062-.017-.117-.031-.167-.043-.008-.003-.017-.005-.024-.007l-1.259,1.385c.861.31,2.605,1.084,4,2.619l3.022,3.325"/>
  <path d="m19.129,15.866c1.969-2.165,2.134-5.573.497-7.948l-7.723,8.494c.953.797,2.11,1.229,3.328,1.229,1.472,0,2.857-.63,3.898-1.776"/>
  <path d="m4.383,15.186c0-.83-.692-1.479-1.477-1.288-.435.105-.789.49-.892.966-.187.869.408,1.644,1.167,1.644.665,0,1.202-.592,1.202-1.322"/>
  <path d="m8.207,19.1c0-.423-.364-.753-.765-.636-.202.059-.366.241-.418.463-.102.44.199.833.582.833.332,0,.602-.295.602-.66"/>
  <path d="m5.185,21.633c0-.528-.432-.947-.93-.851-.317.061-.576.347-.632.695-.087.547.294,1.023.774,1.023.435,0,.788-.388.788-.866"/>
</svg>